G04*
G04 #@! TF.GenerationSoftware,Altium Limited,Altium Designer,18.1.6 (161)*
G04*
G04 Layer_Color=255*
%FSLAX24Y24*%
%MOIN*%
G70*
G01*
G75*
%ADD13R,0.0787X0.0787*%
%ADD14R,0.0906X0.0984*%
%ADD15R,0.0394X0.0413*%
%ADD16O,0.0236X0.0433*%
%ADD17R,0.0492X0.1201*%
%ADD18R,0.2677X0.2874*%
%ADD19R,0.0984X0.0591*%
%ADD20R,0.0787X0.0787*%
%ADD21R,0.0413X0.0394*%
%ADD22O,0.0433X0.0236*%
D13*
X18635Y33637D02*
D03*
Y32063D02*
D03*
X42088Y32027D02*
D03*
Y33602D02*
D03*
X30495Y33628D02*
D03*
Y32053D02*
D03*
D14*
X22950Y22396D02*
D03*
Y20704D02*
D03*
X46450Y22339D02*
D03*
Y20646D02*
D03*
X34700Y20649D02*
D03*
Y22342D02*
D03*
D15*
X17550Y29570D02*
D03*
Y28940D02*
D03*
X29250Y28985D02*
D03*
Y29615D02*
D03*
D16*
X16674Y29865D02*
D03*
X16300D02*
D03*
X15926D02*
D03*
Y28940D02*
D03*
X16300D02*
D03*
X16674D02*
D03*
X28500Y28985D02*
D03*
X28126D02*
D03*
X27752D02*
D03*
Y29910D02*
D03*
X28126D02*
D03*
X28500D02*
D03*
D17*
X18676Y23850D02*
D03*
X16872D02*
D03*
X38951Y23900D02*
D03*
X37148D02*
D03*
X27220Y23860D02*
D03*
X25417D02*
D03*
X15203Y23850D02*
D03*
X13400D02*
D03*
X42303Y23900D02*
D03*
X40500D02*
D03*
X30572Y23854D02*
D03*
X28768D02*
D03*
D18*
X17774Y21488D02*
D03*
X38050Y21538D02*
D03*
X26318Y21498D02*
D03*
X14302Y21488D02*
D03*
X41401Y21538D02*
D03*
X29670Y21492D02*
D03*
D19*
X18635Y29848D02*
D03*
Y31100D02*
D03*
X39085Y33652D02*
D03*
Y32400D02*
D03*
X44750Y21758D02*
D03*
Y20506D02*
D03*
X42088Y31002D02*
D03*
Y29750D02*
D03*
X27385Y32388D02*
D03*
Y33640D02*
D03*
X32950Y20506D02*
D03*
Y21758D02*
D03*
X30495Y29900D02*
D03*
Y31152D02*
D03*
X15850Y32376D02*
D03*
Y33628D02*
D03*
X21200Y20500D02*
D03*
Y21752D02*
D03*
D20*
X39085Y31000D02*
D03*
X40660D02*
D03*
X27385Y31100D02*
D03*
X28960D02*
D03*
X15863D02*
D03*
X17437D02*
D03*
D21*
X40065Y28200D02*
D03*
X39435D02*
D03*
D22*
X40360Y28966D02*
D03*
Y29340D02*
D03*
Y29714D02*
D03*
X39435D02*
D03*
Y29340D02*
D03*
Y28966D02*
D03*
M02*
