G04*
G04 #@! TF.GenerationSoftware,Altium Limited,Altium Designer,18.1.6 (161)*
G04*
G04 Layer_Color=2752767*
%FSLAX24Y24*%
%MOIN*%
G70*
G01*
G75*
%ADD50C,0.0020*%
%ADD51C,0.0027*%
D50*
X6670Y21270D02*
Y21430D01*
X6830D01*
Y21270D01*
X6670D01*
X53670Y34420D02*
Y34580D01*
X53830D01*
Y34420D01*
X53670D01*
X6670D02*
Y34580D01*
X6830D01*
Y34420D01*
X6670D01*
X53670Y21270D02*
Y21430D01*
X53830D01*
Y21270D01*
X53670D01*
X16300Y28220D02*
X16220Y28380D01*
X16380D01*
X16300Y28220D01*
X15203Y24870D02*
X15123Y25030D01*
X15283D01*
X15203Y24870D01*
X29900Y28220D02*
X29820Y28380D01*
X29980D01*
X29900Y28220D01*
X38950Y24820D02*
X38870Y24980D01*
X39030D01*
X38950Y24820D01*
X38700Y28470D02*
X38620Y28630D01*
X38780D01*
X38700Y28470D01*
X42303Y24820D02*
X42223Y24980D01*
X42383D01*
X42303Y24820D01*
X27220D02*
X27140Y24980D01*
X27300D01*
X27220Y24820D01*
X30572Y24880D02*
X30492Y25040D01*
X30652D01*
X30572Y24880D01*
X18676Y24870D02*
X18596Y25030D01*
X18756D01*
X18676Y24870D01*
D51*
X33880Y32400D02*
G03*
X33880Y32400I-80J0D01*
G01*
X10443Y32350D02*
G03*
X10443Y32350I-80J0D01*
G01*
X13480D02*
G03*
X13480Y32350I-80J0D01*
G01*
X50630Y18925D02*
G03*
X50630Y18925I-80J0D01*
G01*
X50600Y16550D02*
G03*
X50600Y16550I-80J0D01*
G01*
X47680Y16450D02*
G03*
X47680Y16450I-80J0D01*
G01*
Y18850D02*
G03*
X47680Y18850I-80J0D01*
G01*
X14330Y18650D02*
G03*
X14330Y18650I-80J0D01*
G01*
X25480Y32400D02*
G03*
X25480Y32400I-80J0D01*
G01*
X37228D02*
G03*
X37228Y32400I-80J0D01*
G01*
X10450Y16250D02*
G03*
X10450Y16250I-80J0D01*
G01*
Y18650D02*
G03*
X10450Y18650I-80J0D01*
G01*
X22080Y32400D02*
G03*
X22080Y32400I-80J0D01*
G01*
X14330Y16250D02*
G03*
X14330Y16250I-80J0D01*
G01*
M02*
