M48
;Layer_Color=9474304
;FILE_FORMAT=2:4
INCH,TZ
;TYPE=PLATED
T1F00S00C0.0280
T2F00S00C0.1700
T3F00S00C0.2000
%
T01
X38950Y24900
X42303
X38700Y28550
X29900Y28300
X30572Y24960
X27220Y24900
X18676Y24950
X16300Y28300
X15203Y24950
T02
X53750Y21350
X6750
Y34500
X53750
T03
X47600Y16450
Y18850
X50550Y18925
X50520Y16550
X14250Y16250
Y18650
X10370
Y16250
X10362Y32350
X13400
X22000Y32400
X25400
X33800
X37148
M30
