G04*
G04 #@! TF.GenerationSoftware,Altium Limited,Altium Designer,18.1.6 (161)*
G04*
G04 Layer_Color=8388736*
%FSLAX24Y24*%
%MOIN*%
G70*
G01*
G75*
%ADD23R,0.0867X0.0867*%
%ADD24R,0.0986X0.1064*%
%ADD25R,0.0474X0.0493*%
%ADD26O,0.0316X0.0513*%
%ADD27R,0.0572X0.1281*%
%ADD28R,0.2757X0.2954*%
%ADD29R,0.1064X0.0671*%
%ADD30R,0.0867X0.0867*%
%ADD31R,0.0493X0.0474*%
%ADD32O,0.0513X0.0316*%
%ADD33C,0.2780*%
%ADD34C,0.2080*%
%ADD35C,0.0580*%
D23*
X18635Y33637D02*
D03*
Y32063D02*
D03*
X42088Y32027D02*
D03*
Y33602D02*
D03*
X30495Y33628D02*
D03*
Y32053D02*
D03*
D24*
X22950Y22396D02*
D03*
Y20704D02*
D03*
X46450Y22339D02*
D03*
Y20646D02*
D03*
X34700Y20649D02*
D03*
Y22342D02*
D03*
D25*
X17550Y29570D02*
D03*
Y28940D02*
D03*
X29250Y28985D02*
D03*
Y29615D02*
D03*
D26*
X16674Y29865D02*
D03*
X16300D02*
D03*
X15926D02*
D03*
Y28940D02*
D03*
X16300D02*
D03*
X16674D02*
D03*
X28500Y28985D02*
D03*
X28126D02*
D03*
X27752D02*
D03*
Y29910D02*
D03*
X28126D02*
D03*
X28500D02*
D03*
D27*
X18676Y23850D02*
D03*
X16872D02*
D03*
X38951Y23900D02*
D03*
X37148D02*
D03*
X27220Y23860D02*
D03*
X25417D02*
D03*
X15203Y23850D02*
D03*
X13400D02*
D03*
X42303Y23900D02*
D03*
X40500D02*
D03*
X30572Y23854D02*
D03*
X28768D02*
D03*
D28*
X17774Y21488D02*
D03*
X38050Y21538D02*
D03*
X26318Y21498D02*
D03*
X14302Y21488D02*
D03*
X41401Y21538D02*
D03*
X29670Y21492D02*
D03*
D29*
X18635Y29848D02*
D03*
Y31100D02*
D03*
X39085Y33652D02*
D03*
Y32400D02*
D03*
X44750Y21758D02*
D03*
Y20506D02*
D03*
X42088Y31002D02*
D03*
Y29750D02*
D03*
X27385Y32388D02*
D03*
Y33640D02*
D03*
X32950Y20506D02*
D03*
Y21758D02*
D03*
X30495Y29900D02*
D03*
Y31152D02*
D03*
X15850Y32376D02*
D03*
Y33628D02*
D03*
X21200Y20500D02*
D03*
Y21752D02*
D03*
D30*
X39085Y31000D02*
D03*
X40660D02*
D03*
X27385Y31100D02*
D03*
X28960D02*
D03*
X15863D02*
D03*
X17437D02*
D03*
D31*
X40065Y28200D02*
D03*
X39435D02*
D03*
D32*
X40360Y28966D02*
D03*
Y29340D02*
D03*
Y29714D02*
D03*
X39435D02*
D03*
Y29340D02*
D03*
Y28966D02*
D03*
D33*
X6750Y21350D02*
D03*
X53750Y34500D02*
D03*
X6750D02*
D03*
X53750Y21350D02*
D03*
D34*
X33800Y32400D02*
D03*
X10362Y32350D02*
D03*
X13400D02*
D03*
X50550Y18925D02*
D03*
X50520Y16550D02*
D03*
X47600Y16450D02*
D03*
Y18850D02*
D03*
X14250Y18650D02*
D03*
X25400Y32400D02*
D03*
X37148D02*
D03*
X10370Y16250D02*
D03*
Y18650D02*
D03*
X22000Y32400D02*
D03*
X14250Y16250D02*
D03*
D35*
X16300Y28300D02*
D03*
X15203Y24950D02*
D03*
X29900Y28300D02*
D03*
X38950Y24900D02*
D03*
X38700Y28550D02*
D03*
X42303Y24900D02*
D03*
X27220D02*
D03*
X30572Y24960D02*
D03*
X18676Y24950D02*
D03*
M02*
