G04*
G04 #@! TF.GenerationSoftware,Altium Limited,Altium Designer,18.1.6 (161)*
G04*
G04 Layer_Color=32768*
%FSLAX24Y24*%
%MOIN*%
G70*
G01*
G75*
%ADD45C,0.0039*%
%ADD49C,0.0020*%
D45*
X17946Y34051D02*
X19324D01*
X17946Y31649D02*
X19324D01*
Y34051D01*
X17946Y31649D02*
Y34051D01*
X18635Y32653D02*
Y33047D01*
X18438Y32850D02*
X18832D01*
X22753Y21550D02*
X23147D01*
X22950Y21353D02*
Y21747D01*
X23836Y20349D02*
Y22751D01*
X22064Y20349D02*
Y22751D01*
X23836D01*
X22064Y20349D02*
X23836D01*
X17363Y29255D02*
X17737D01*
X17550Y29068D02*
Y29442D01*
X16300Y29206D02*
Y29599D01*
X16103Y29402D02*
X16497D01*
X16337Y24549D02*
X19211D01*
X16337Y19962D02*
X19211D01*
Y24549D01*
X16337Y19962D02*
Y24549D01*
X17774Y22059D02*
Y22452D01*
X17577Y22256D02*
X17971D01*
X38672Y30311D02*
Y31689D01*
X41073Y30311D02*
Y31689D01*
X38672D02*
X41073D01*
X38672Y30311D02*
X41073D01*
X39676Y31000D02*
X40069D01*
X39873Y30803D02*
Y31197D01*
X46253Y21492D02*
X46647D01*
X46450Y21295D02*
Y21689D01*
X47336Y20292D02*
Y22693D01*
X45564Y20292D02*
Y22693D01*
X47336D01*
X45564Y20292D02*
X47336D01*
X41891Y32815D02*
X42285D01*
X42088Y32618D02*
Y33011D01*
X41399Y31614D02*
Y34015D01*
X42777Y31614D02*
Y34015D01*
X41399Y31614D02*
X42777D01*
X41399Y34015D02*
X42777D01*
X26972Y30411D02*
Y31789D01*
X29373Y30411D02*
Y31789D01*
X26972D02*
X29373D01*
X26972Y30411D02*
X29373D01*
X27976Y31100D02*
X28369D01*
X28173Y30903D02*
Y31297D01*
X33814Y20295D02*
X35586D01*
X33814Y22696D02*
X35586D01*
X33814Y20295D02*
Y22696D01*
X35586Y20295D02*
Y22696D01*
X34700Y21299D02*
Y21692D01*
X34503Y21496D02*
X34897D01*
X29806Y34041D02*
X31184D01*
X29806Y31640D02*
X31184D01*
Y34041D01*
X29806Y31640D02*
Y34041D01*
X30495Y32644D02*
Y33037D01*
X30298Y32841D02*
X30692D01*
X15449Y30411D02*
Y31789D01*
X17851Y30411D02*
Y31789D01*
X15449D02*
X17851D01*
X15449Y30411D02*
X17851D01*
X16453Y31100D02*
X16847D01*
X16650Y30903D02*
Y31297D01*
X36613Y24599D02*
X39487D01*
X36613Y20012D02*
X39487D01*
Y24599D01*
X36613Y20012D02*
Y24599D01*
X38050Y22109D02*
Y22502D01*
X37853Y22306D02*
X38247D01*
X24881Y24559D02*
X27755D01*
X24881Y19972D02*
X27755D01*
Y24559D01*
X24881Y19972D02*
Y24559D01*
X26318Y22069D02*
Y22462D01*
X26122Y22266D02*
X26515D01*
X12865Y24549D02*
X15739D01*
X12865Y19962D02*
X15739D01*
Y24549D01*
X12865Y19962D02*
Y24549D01*
X14302Y22059D02*
Y22452D01*
X14105Y22256D02*
X14498D01*
X39750Y28013D02*
Y28387D01*
X39563Y28200D02*
X39937D01*
X29250Y29113D02*
Y29487D01*
X29063Y29300D02*
X29437D01*
X39701Y29340D02*
X40095D01*
X39898Y29143D02*
Y29537D01*
X27929Y29447D02*
X28323D01*
X28126Y29251D02*
Y29644D01*
X39964Y24599D02*
X42838D01*
X39964Y20012D02*
X42838D01*
Y24599D01*
X39964Y20012D02*
Y24599D01*
X41401Y22109D02*
Y22502D01*
X41205Y22306D02*
X41598D01*
X28233Y24553D02*
X31107D01*
X28233Y19967D02*
X31107D01*
Y24553D01*
X28233Y19967D02*
Y24553D01*
X29670Y22063D02*
Y22457D01*
X29473Y22260D02*
X29867D01*
D49*
X17845Y28644D02*
Y29865D01*
X17255Y28644D02*
Y29865D01*
X17845D01*
X17255Y28644D02*
X17845D01*
X15591Y30180D02*
X17009D01*
X15591Y28625D02*
X17009D01*
Y30180D01*
X15591Y28625D02*
Y30180D01*
X39140Y27905D02*
X40360D01*
X39140Y28495D02*
X40360D01*
Y27905D02*
Y28495D01*
X39140Y27905D02*
Y28495D01*
X28955Y28690D02*
X29545D01*
X28955Y29910D02*
X29545D01*
X28955Y28690D02*
Y29910D01*
X29545Y28690D02*
Y29910D01*
X40675Y28631D02*
Y30049D01*
X39120Y28631D02*
Y30049D01*
Y28631D02*
X40675D01*
X39120Y30049D02*
X40675D01*
X27417Y28670D02*
Y30225D01*
X28835Y28670D02*
Y30225D01*
X27417Y28670D02*
X28835D01*
X27417Y30225D02*
X28835D01*
M02*
