G04*
G04 #@! TF.GenerationSoftware,Altium Limited,Altium Designer,18.1.6 (161)*
G04*
G04 Layer_Color=32896*
%FSLAX25Y25*%
%MOIN*%
G70*
G01*
G75*
%ADD13C,0.00394*%
%ADD14R,0.11496X0.02420*%
%ADD15R,0.15512X0.02420*%
%ADD16R,0.02420X0.11496*%
%ADD17C,0.00197*%
G36*
X445200Y360400D02*
Y359600D01*
Y358800D01*
Y358000D01*
Y357200D01*
Y356400D01*
Y355600D01*
Y354800D01*
Y354000D01*
Y353200D01*
Y352400D01*
Y351600D01*
Y350800D01*
Y350000D01*
Y349200D01*
Y348400D01*
Y347600D01*
Y346800D01*
Y346000D01*
Y345200D01*
Y344400D01*
Y343600D01*
Y342800D01*
Y342000D01*
Y341200D01*
Y340400D01*
Y339600D01*
Y338800D01*
Y338000D01*
Y337200D01*
Y336400D01*
Y335600D01*
Y334800D01*
Y334000D01*
Y333200D01*
Y332400D01*
Y331600D01*
Y330800D01*
Y330000D01*
Y329200D01*
Y328400D01*
Y327600D01*
Y326800D01*
Y326000D01*
Y325200D01*
Y324400D01*
Y323600D01*
Y322800D01*
Y322000D01*
Y321200D01*
Y320400D01*
Y319600D01*
Y318800D01*
Y318000D01*
Y317200D01*
Y316400D01*
Y315600D01*
Y314800D01*
Y314000D01*
Y313200D01*
Y312400D01*
Y311600D01*
Y310800D01*
Y310000D01*
Y309200D01*
Y308400D01*
Y307600D01*
Y306800D01*
Y306000D01*
Y305200D01*
Y304400D01*
Y303600D01*
Y302800D01*
Y302000D01*
Y301200D01*
Y300400D01*
Y299600D01*
Y298800D01*
Y298000D01*
Y297200D01*
Y296400D01*
Y295600D01*
Y294800D01*
Y294000D01*
Y293200D01*
Y292400D01*
Y291600D01*
Y290800D01*
Y290000D01*
Y289200D01*
Y288400D01*
Y287600D01*
Y286800D01*
Y286000D01*
Y285200D01*
Y284400D01*
Y283600D01*
Y282800D01*
Y282000D01*
Y281200D01*
Y280400D01*
Y279600D01*
Y278800D01*
Y278000D01*
Y277200D01*
Y276400D01*
Y275600D01*
Y274800D01*
Y274000D01*
Y273200D01*
Y272400D01*
Y271600D01*
Y270800D01*
Y270000D01*
Y269200D01*
Y268400D01*
Y267600D01*
Y266800D01*
Y266000D01*
Y265200D01*
Y264400D01*
Y263600D01*
Y262800D01*
Y262000D01*
Y261200D01*
Y260400D01*
Y259600D01*
Y258800D01*
Y258000D01*
Y257200D01*
Y256400D01*
Y255600D01*
Y254800D01*
Y254000D01*
Y253200D01*
Y252400D01*
Y251600D01*
Y250800D01*
Y250000D01*
Y249200D01*
Y248400D01*
Y247600D01*
Y246800D01*
Y246000D01*
Y245200D01*
Y244400D01*
Y243600D01*
Y242800D01*
Y242000D01*
Y241200D01*
Y240400D01*
Y239600D01*
Y238800D01*
Y238000D01*
Y237200D01*
Y236400D01*
Y235600D01*
Y234800D01*
Y234000D01*
Y233200D01*
Y232400D01*
Y231600D01*
Y230800D01*
Y230000D01*
Y229200D01*
Y228400D01*
Y227600D01*
Y226800D01*
Y226000D01*
Y225200D01*
Y224400D01*
Y223600D01*
Y222800D01*
Y222000D01*
Y221200D01*
Y220400D01*
Y219600D01*
Y218800D01*
Y218000D01*
Y217200D01*
Y216400D01*
Y215600D01*
Y214800D01*
Y214000D01*
Y213200D01*
Y212400D01*
Y211600D01*
Y210800D01*
Y210000D01*
Y209200D01*
Y208400D01*
Y207600D01*
Y206800D01*
Y206000D01*
Y205200D01*
Y204400D01*
Y203600D01*
Y202800D01*
Y202000D01*
Y201200D01*
Y200400D01*
Y199600D01*
Y198800D01*
Y198000D01*
Y197200D01*
Y196400D01*
Y195600D01*
Y194800D01*
Y194000D01*
Y193200D01*
Y192400D01*
Y191600D01*
Y190800D01*
Y190000D01*
Y189200D01*
Y188400D01*
Y187600D01*
Y186800D01*
Y186000D01*
Y185200D01*
Y184400D01*
Y183600D01*
Y182800D01*
Y182000D01*
X266000D01*
Y182800D01*
Y183600D01*
Y184400D01*
Y185200D01*
Y186000D01*
Y186800D01*
Y187600D01*
Y188400D01*
Y189200D01*
Y190000D01*
Y190800D01*
Y191600D01*
Y192400D01*
Y193200D01*
Y194000D01*
Y194800D01*
Y195600D01*
Y196400D01*
Y197200D01*
Y198000D01*
Y198800D01*
Y199600D01*
Y200400D01*
Y201200D01*
Y202000D01*
Y202800D01*
Y203600D01*
Y204400D01*
Y205200D01*
Y206000D01*
Y206800D01*
Y207600D01*
Y208400D01*
Y209200D01*
Y210000D01*
Y210800D01*
Y211600D01*
Y212400D01*
Y213200D01*
Y214000D01*
Y214800D01*
Y215600D01*
Y216400D01*
Y217200D01*
Y218000D01*
Y218800D01*
Y219600D01*
Y220400D01*
Y221200D01*
Y222000D01*
Y222800D01*
Y223600D01*
Y224400D01*
Y225200D01*
Y226000D01*
Y226800D01*
Y227600D01*
Y228400D01*
Y229200D01*
Y230000D01*
Y230800D01*
Y231600D01*
Y232400D01*
Y233200D01*
Y234000D01*
Y234800D01*
Y235600D01*
Y236400D01*
Y237200D01*
Y238000D01*
Y238800D01*
Y239600D01*
Y240400D01*
Y241200D01*
Y242000D01*
Y242800D01*
Y243600D01*
Y244400D01*
Y245200D01*
Y246000D01*
Y246800D01*
Y247600D01*
Y248400D01*
Y249200D01*
Y250000D01*
Y250800D01*
Y251600D01*
Y252400D01*
Y253200D01*
Y254000D01*
Y254800D01*
Y255600D01*
Y256400D01*
Y257200D01*
Y258000D01*
Y258800D01*
Y259600D01*
Y260400D01*
Y261200D01*
Y262000D01*
Y262800D01*
Y263600D01*
Y264400D01*
Y265200D01*
Y266000D01*
Y266800D01*
Y267600D01*
Y268400D01*
Y269200D01*
Y270000D01*
Y270800D01*
Y271600D01*
Y272400D01*
Y273200D01*
Y274000D01*
Y274800D01*
Y275600D01*
Y276400D01*
Y277200D01*
Y278000D01*
Y278800D01*
Y279600D01*
Y280400D01*
Y281200D01*
Y282000D01*
Y282800D01*
Y283600D01*
Y284400D01*
Y285200D01*
Y286000D01*
Y286800D01*
Y287600D01*
Y288400D01*
Y289200D01*
Y290000D01*
Y290800D01*
Y291600D01*
Y292400D01*
Y293200D01*
Y294000D01*
Y294800D01*
Y295600D01*
Y296400D01*
Y297200D01*
Y298000D01*
Y298800D01*
Y299600D01*
Y300400D01*
Y301200D01*
Y302000D01*
Y302800D01*
Y303600D01*
Y304400D01*
Y305200D01*
Y306000D01*
Y306800D01*
Y307600D01*
Y308400D01*
Y309200D01*
Y310000D01*
Y310800D01*
Y311600D01*
Y312400D01*
Y313200D01*
Y314000D01*
Y314800D01*
Y315600D01*
Y316400D01*
Y317200D01*
Y318000D01*
Y318800D01*
Y319600D01*
Y320400D01*
Y321200D01*
Y322000D01*
Y322800D01*
Y323600D01*
Y324400D01*
Y325200D01*
Y326000D01*
Y326800D01*
Y327600D01*
Y328400D01*
Y329200D01*
Y330000D01*
Y330800D01*
Y331600D01*
Y332400D01*
Y333200D01*
Y334000D01*
Y334800D01*
Y335600D01*
Y336400D01*
Y337200D01*
Y338000D01*
Y338800D01*
Y339600D01*
Y340400D01*
Y341200D01*
Y342000D01*
Y342800D01*
Y343600D01*
Y344400D01*
Y345200D01*
Y346000D01*
Y346800D01*
Y347600D01*
Y348400D01*
Y349200D01*
Y350000D01*
Y350800D01*
Y351600D01*
Y352400D01*
Y353200D01*
Y354000D01*
Y354800D01*
Y355600D01*
Y356400D01*
Y357200D01*
Y358000D01*
Y358800D01*
Y359600D01*
Y360400D01*
Y361200D01*
X445200D01*
Y360400D01*
D02*
G37*
%LPC*%
G36*
X427600Y342000D02*
X426800D01*
Y341200D01*
X427600D01*
Y342000D01*
D02*
G37*
G36*
X402000Y343600D02*
X400400D01*
Y342800D01*
X399600D01*
Y342000D01*
X398800D01*
Y341200D01*
X399600D01*
Y340400D01*
X398800D01*
Y341200D01*
X398000D01*
Y340400D01*
X398800D01*
Y339600D01*
Y338800D01*
Y338000D01*
X398000D01*
Y337200D01*
X398800D01*
Y336400D01*
X399600D01*
Y337200D01*
X404400D01*
Y338000D01*
X417200D01*
Y337200D01*
X420400D01*
Y338000D01*
X423600D01*
Y338800D01*
X425200D01*
Y339600D01*
X426000D01*
Y340400D01*
X426800D01*
Y341200D01*
X425200D01*
Y340400D01*
X424400D01*
Y339600D01*
X422800D01*
Y338800D01*
X419600D01*
Y338000D01*
X418000D01*
Y338800D01*
X414800D01*
Y339600D01*
X408400D01*
Y338800D01*
X402800D01*
Y338000D01*
X399600D01*
Y338800D01*
X400400D01*
Y339600D01*
Y340400D01*
Y341200D01*
X401200D01*
Y342000D01*
Y342800D01*
X402000D01*
Y343600D01*
D02*
G37*
G36*
X432400Y344400D02*
X429200D01*
Y343600D01*
X428400D01*
Y342800D01*
X427600D01*
Y342000D01*
X429200D01*
Y342800D01*
X430000D01*
Y343600D01*
X431600D01*
Y342800D01*
Y342000D01*
Y341200D01*
Y340400D01*
X430800D01*
Y339600D01*
Y338800D01*
Y338000D01*
X431600D01*
Y338800D01*
Y339600D01*
X432400D01*
Y340400D01*
Y341200D01*
Y342000D01*
Y342800D01*
Y343600D01*
Y344400D01*
D02*
G37*
G36*
X430800Y338000D02*
X430000D01*
Y337200D01*
Y336400D01*
X430800D01*
Y337200D01*
Y338000D01*
D02*
G37*
G36*
X394800Y346800D02*
X392400D01*
Y346000D01*
Y345200D01*
X393200D01*
Y346000D01*
X394000D01*
Y345200D01*
Y344400D01*
Y343600D01*
Y342800D01*
Y342000D01*
Y341200D01*
Y340400D01*
Y339600D01*
Y338800D01*
X394800D01*
Y338000D01*
X395600D01*
Y337200D01*
X396400D01*
Y336400D01*
X397200D01*
Y337200D01*
Y338000D01*
Y338800D01*
X398000D01*
Y339600D01*
Y340400D01*
X397200D01*
Y339600D01*
X396400D01*
Y338800D01*
X395600D01*
Y339600D01*
Y340400D01*
X394800D01*
Y341200D01*
Y342000D01*
Y342800D01*
Y343600D01*
X395600D01*
Y344400D01*
Y345200D01*
Y346000D01*
X394800D01*
Y346800D01*
D02*
G37*
G36*
X430000Y341200D02*
X429200D01*
Y340400D01*
X428400D01*
Y339600D01*
X426800D01*
Y338800D01*
X426000D01*
Y338000D01*
X424400D01*
Y337200D01*
X422000D01*
Y336400D01*
Y335600D01*
X424400D01*
Y334800D01*
X425200D01*
Y335600D01*
X426800D01*
Y336400D01*
X427600D01*
Y337200D01*
X428400D01*
Y338000D01*
X429200D01*
Y338800D01*
Y339600D01*
X430000D01*
Y340400D01*
Y341200D01*
D02*
G37*
G36*
X318800Y346800D02*
X316400D01*
Y346000D01*
Y345200D01*
Y344400D01*
Y343600D01*
Y342800D01*
Y342000D01*
Y341200D01*
Y340400D01*
Y339600D01*
X315600D01*
Y338800D01*
X314800D01*
Y339600D01*
X314000D01*
Y340400D01*
Y341200D01*
X313200D01*
Y342000D01*
X311600D01*
Y342800D01*
X310800D01*
Y343600D01*
X309200D01*
Y342800D01*
X310000D01*
Y342000D01*
Y341200D01*
X310800D01*
Y340400D01*
Y339600D01*
X311600D01*
Y338800D01*
Y338000D01*
X308400D01*
Y338800D01*
X302800D01*
Y339600D01*
X296400D01*
Y338800D01*
X292400D01*
Y338000D01*
X291600D01*
Y338800D01*
X289200D01*
Y339600D01*
X286800D01*
Y340400D01*
X286000D01*
Y341200D01*
X285200D01*
Y342000D01*
X283600D01*
Y342800D01*
X282800D01*
Y343600D01*
X282000D01*
Y344400D01*
X278800D01*
Y343600D01*
Y342800D01*
Y342000D01*
Y341200D01*
Y340400D01*
Y339600D01*
X279600D01*
Y338800D01*
Y338000D01*
X280400D01*
Y337200D01*
Y336400D01*
X281200D01*
Y335600D01*
X279600D01*
Y334800D01*
X278800D01*
Y334000D01*
X280400D01*
Y334800D01*
X282800D01*
Y335600D01*
X282000D01*
Y336400D01*
Y337200D01*
X281200D01*
Y338000D01*
Y338800D01*
X280400D01*
Y339600D01*
Y340400D01*
X279600D01*
Y341200D01*
Y342000D01*
Y342800D01*
Y343600D01*
X281200D01*
Y342800D01*
X282800D01*
Y342000D01*
X283600D01*
Y341200D01*
X284400D01*
Y340400D01*
X285200D01*
Y339600D01*
X286000D01*
Y338800D01*
X288400D01*
Y338000D01*
X290800D01*
Y337200D01*
X294000D01*
Y338000D01*
X306800D01*
Y337200D01*
X310800D01*
Y336400D01*
X313200D01*
Y337200D01*
Y338000D01*
X312400D01*
Y338800D01*
Y339600D01*
Y340400D01*
X311600D01*
Y341200D01*
X312400D01*
Y340400D01*
X313200D01*
Y339600D01*
Y338800D01*
X314000D01*
Y338000D01*
Y337200D01*
Y336400D01*
X315600D01*
Y337200D01*
Y338000D01*
X316400D01*
Y338800D01*
X317200D01*
Y339600D01*
Y340400D01*
Y341200D01*
Y342000D01*
Y342800D01*
Y343600D01*
Y344400D01*
Y345200D01*
Y346000D01*
X318000D01*
Y345200D01*
X318800D01*
Y344400D01*
Y343600D01*
X319600D01*
Y342800D01*
Y342000D01*
X320400D01*
Y341200D01*
Y340400D01*
Y339600D01*
X321200D01*
Y338800D01*
Y338000D01*
Y337200D01*
X320400D01*
Y336400D01*
Y335600D01*
X323600D01*
Y336400D01*
X327600D01*
Y337200D01*
X333200D01*
Y338000D01*
X341200D01*
Y337200D01*
X346800D01*
Y336400D01*
X349200D01*
Y335600D01*
X351600D01*
Y334800D01*
X352400D01*
Y334000D01*
X354000D01*
Y333200D01*
X356400D01*
Y334000D01*
X358000D01*
Y334800D01*
X359600D01*
Y335600D01*
X361200D01*
Y336400D01*
X364400D01*
Y337200D01*
X370000D01*
Y338000D01*
X376400D01*
Y337200D01*
X383600D01*
Y336400D01*
X386800D01*
Y335600D01*
X389200D01*
Y334800D01*
X390800D01*
Y335600D01*
Y336400D01*
Y337200D01*
X390000D01*
Y338000D01*
Y338800D01*
X390800D01*
Y339600D01*
Y340400D01*
Y341200D01*
X391600D01*
Y342000D01*
Y342800D01*
Y343600D01*
X392400D01*
Y344400D01*
Y345200D01*
X391600D01*
Y344400D01*
X390800D01*
Y343600D01*
Y342800D01*
Y342000D01*
X390000D01*
Y341200D01*
Y340400D01*
X389200D01*
Y339600D01*
Y338800D01*
Y338000D01*
Y337200D01*
Y336400D01*
X387600D01*
Y337200D01*
X384400D01*
Y338000D01*
X379600D01*
Y338800D01*
X367600D01*
Y338000D01*
X362800D01*
Y337200D01*
X360400D01*
Y336400D01*
X358800D01*
Y335600D01*
X357200D01*
Y334800D01*
X355600D01*
Y334000D01*
X354800D01*
Y334800D01*
X353200D01*
Y335600D01*
X352400D01*
Y336400D01*
X350000D01*
Y337200D01*
X347600D01*
Y338000D01*
X343600D01*
Y338800D01*
X331600D01*
Y338000D01*
X326000D01*
Y337200D01*
X322800D01*
Y336400D01*
X322000D01*
Y337200D01*
Y338000D01*
Y338800D01*
Y339600D01*
Y340400D01*
X321200D01*
Y341200D01*
Y342000D01*
Y342800D01*
X320400D01*
Y343600D01*
Y344400D01*
X319600D01*
Y345200D01*
Y346000D01*
X318800D01*
Y346800D01*
D02*
G37*
G36*
X282800Y341200D02*
X281200D01*
Y340400D01*
Y339600D01*
X282000D01*
Y338800D01*
Y338000D01*
X282800D01*
Y337200D01*
X283600D01*
Y336400D01*
X284400D01*
Y335600D01*
X286000D01*
Y334800D01*
X286800D01*
Y335600D01*
X288400D01*
Y336400D01*
X289200D01*
Y337200D01*
X286800D01*
Y338000D01*
X285200D01*
Y338800D01*
X284400D01*
Y339600D01*
X283600D01*
Y340400D01*
X282800D01*
Y341200D01*
D02*
G37*
G36*
X393200Y340400D02*
X391600D01*
Y339600D01*
Y338800D01*
Y338000D01*
Y337200D01*
Y336400D01*
X392400D01*
Y335600D01*
Y334800D01*
Y334000D01*
X394000D01*
Y334800D01*
X395600D01*
Y335600D01*
Y336400D01*
X394800D01*
Y337200D01*
X394000D01*
Y338000D01*
X393200D01*
Y338800D01*
Y339600D01*
Y340400D01*
D02*
G37*
G36*
X319600D02*
X318000D01*
Y339600D01*
Y338800D01*
Y338000D01*
X317200D01*
Y337200D01*
Y336400D01*
X316400D01*
Y335600D01*
X315600D01*
Y334800D01*
X317200D01*
Y334000D01*
X318000D01*
Y334800D01*
X318800D01*
Y335600D01*
X319600D01*
Y336400D01*
Y337200D01*
Y338000D01*
Y338800D01*
Y339600D01*
Y340400D01*
D02*
G37*
G36*
X282800Y334000D02*
X282000D01*
Y333200D01*
X278800D01*
Y334000D01*
X277200D01*
Y333200D01*
X276400D01*
Y332400D01*
X275600D01*
Y331600D01*
X274000D01*
Y330800D01*
Y330000D01*
X274800D01*
Y330800D01*
X277200D01*
Y331600D01*
X279600D01*
Y330800D01*
X280400D01*
Y331600D01*
X279600D01*
Y332400D01*
X280400D01*
Y331600D01*
X282000D01*
Y332400D01*
X282800D01*
Y333200D01*
Y334000D01*
D02*
G37*
G36*
X430000Y336400D02*
X429200D01*
Y335600D01*
X428400D01*
Y334800D01*
X430800D01*
Y334000D01*
X432400D01*
Y333200D01*
X433200D01*
Y332400D01*
X432400D01*
Y333200D01*
X429200D01*
Y334000D01*
X428400D01*
Y333200D01*
Y332400D01*
X429200D01*
Y331600D01*
X430000D01*
Y330800D01*
X430800D01*
Y330000D01*
X431600D01*
Y329200D01*
X432400D01*
Y328400D01*
X433200D01*
Y327600D01*
X434000D01*
Y326800D01*
X434800D01*
Y326000D01*
X435600D01*
Y325200D01*
Y324400D01*
X436400D01*
Y323600D01*
X437200D01*
Y322800D01*
Y322000D01*
X438000D01*
Y321200D01*
Y320400D01*
X438800D01*
Y319600D01*
Y318800D01*
X439600D01*
Y318000D01*
Y317200D01*
X440400D01*
Y316400D01*
Y315600D01*
Y314800D01*
Y314000D01*
X441200D01*
Y313200D01*
Y312400D01*
Y311600D01*
Y310800D01*
Y310000D01*
Y309200D01*
Y308400D01*
X442000D01*
Y307600D01*
Y306800D01*
Y306000D01*
Y305200D01*
X441200D01*
Y304400D01*
Y303600D01*
Y302800D01*
Y302000D01*
Y301200D01*
Y300400D01*
Y299600D01*
X440400D01*
Y298800D01*
Y298000D01*
Y297200D01*
Y296400D01*
X439600D01*
Y295600D01*
Y294800D01*
X438800D01*
Y294000D01*
Y293200D01*
Y292400D01*
X439600D01*
Y293200D01*
Y294000D01*
X440400D01*
Y294800D01*
Y295600D01*
X441200D01*
Y296400D01*
Y297200D01*
Y298000D01*
Y298800D01*
X442000D01*
Y299600D01*
Y300400D01*
Y301200D01*
Y302000D01*
Y302800D01*
Y303600D01*
X442800D01*
Y304400D01*
Y305200D01*
Y306000D01*
Y306800D01*
Y307600D01*
Y308400D01*
Y309200D01*
Y310000D01*
X442000D01*
Y310800D01*
Y311600D01*
Y312400D01*
Y313200D01*
Y314000D01*
Y314800D01*
X441200D01*
Y315600D01*
Y316400D01*
Y317200D01*
X440400D01*
Y318000D01*
Y318800D01*
Y319600D01*
X439600D01*
Y320400D01*
Y321200D01*
X438800D01*
Y322000D01*
Y322800D01*
X438000D01*
Y323600D01*
Y324400D01*
X437200D01*
Y325200D01*
X436400D01*
Y326000D01*
Y326800D01*
X435600D01*
Y327600D01*
X434800D01*
Y328400D01*
X434000D01*
Y329200D01*
X433200D01*
Y330000D01*
X432400D01*
Y330800D01*
X431600D01*
Y331600D01*
X430800D01*
Y332400D01*
X431600D01*
Y331600D01*
X434000D01*
Y330800D01*
X436400D01*
Y330000D01*
X437200D01*
Y330800D01*
Y331600D01*
X435600D01*
Y332400D01*
X434800D01*
Y333200D01*
X434000D01*
Y334000D01*
X433200D01*
Y334800D01*
X431600D01*
Y335600D01*
X430000D01*
Y336400D01*
D02*
G37*
G36*
X381200D02*
X366000D01*
Y335600D01*
X362800D01*
Y334800D01*
X360400D01*
Y334000D01*
X358800D01*
Y333200D01*
X358000D01*
Y332400D01*
X356400D01*
Y331600D01*
X355600D01*
Y330800D01*
X354800D01*
Y331600D01*
X354000D01*
Y332400D01*
X353200D01*
Y333200D01*
X351600D01*
Y334000D01*
X350000D01*
Y334800D01*
X347600D01*
Y335600D01*
X344400D01*
Y336400D01*
X330000D01*
Y335600D01*
X326000D01*
Y334800D01*
X322800D01*
Y334000D01*
X320400D01*
Y333200D01*
X318000D01*
Y332400D01*
X316400D01*
Y331600D01*
X314800D01*
Y330800D01*
X313200D01*
Y330000D01*
X311600D01*
Y329200D01*
X310000D01*
Y328400D01*
X309200D01*
Y327600D01*
X308400D01*
Y326800D01*
X306800D01*
Y326000D01*
X306000D01*
Y325200D01*
X305200D01*
Y324400D01*
X304400D01*
Y323600D01*
X303600D01*
Y322800D01*
X302800D01*
Y322000D01*
X302000D01*
Y321200D01*
X301200D01*
Y320400D01*
X300400D01*
Y319600D01*
X299600D01*
Y318800D01*
X298800D01*
Y318000D01*
Y317200D01*
X298000D01*
Y316400D01*
X297200D01*
Y315600D01*
Y314800D01*
X296400D01*
Y314000D01*
X295600D01*
Y313200D01*
Y312400D01*
X294800D01*
Y311600D01*
Y310800D01*
X294000D01*
Y310000D01*
Y309200D01*
X293200D01*
Y308400D01*
Y307600D01*
Y306800D01*
X292400D01*
Y306000D01*
Y305200D01*
Y304400D01*
X291600D01*
Y303600D01*
Y302800D01*
Y302000D01*
Y301200D01*
Y300400D01*
Y299600D01*
X290800D01*
Y298800D01*
Y298000D01*
Y297200D01*
Y296400D01*
Y295600D01*
Y294800D01*
Y294000D01*
Y293200D01*
Y292400D01*
Y291600D01*
Y290800D01*
Y290000D01*
Y289200D01*
Y288400D01*
Y287600D01*
Y286800D01*
Y286000D01*
Y285200D01*
Y284400D01*
Y283600D01*
Y282800D01*
Y282000D01*
Y281200D01*
Y280400D01*
Y279600D01*
Y278800D01*
X291600D01*
Y278000D01*
Y277200D01*
X293200D01*
Y278000D01*
Y278800D01*
Y279600D01*
X294000D01*
Y280400D01*
Y281200D01*
Y282000D01*
Y282800D01*
Y283600D01*
Y284400D01*
Y285200D01*
X294800D01*
Y286000D01*
Y286800D01*
Y287600D01*
Y288400D01*
X295600D01*
Y289200D01*
Y290000D01*
Y290800D01*
Y291600D01*
X296400D01*
Y290800D01*
Y290000D01*
Y289200D01*
Y288400D01*
Y287600D01*
Y286800D01*
Y286000D01*
X295600D01*
Y285200D01*
Y284400D01*
Y283600D01*
Y282800D01*
Y282000D01*
Y281200D01*
X294800D01*
Y280400D01*
Y279600D01*
Y278800D01*
Y278000D01*
Y277200D01*
Y276400D01*
Y275600D01*
X294000D01*
Y274800D01*
Y274000D01*
Y273200D01*
Y272400D01*
Y271600D01*
Y270800D01*
Y270000D01*
Y269200D01*
X293200D01*
Y268400D01*
Y267600D01*
Y266800D01*
Y266000D01*
Y265200D01*
Y264400D01*
Y263600D01*
Y262800D01*
X292400D01*
Y262000D01*
Y261200D01*
Y260400D01*
Y259600D01*
Y258800D01*
Y258000D01*
Y257200D01*
Y256400D01*
Y255600D01*
Y254800D01*
X291600D01*
Y254000D01*
Y253200D01*
Y252400D01*
Y251600D01*
Y250800D01*
Y250000D01*
Y249200D01*
Y248400D01*
Y247600D01*
Y246800D01*
Y246000D01*
Y245200D01*
Y244400D01*
Y243600D01*
Y242800D01*
Y242000D01*
Y241200D01*
Y240400D01*
Y239600D01*
Y238800D01*
Y238000D01*
Y237200D01*
Y236400D01*
Y235600D01*
Y234800D01*
Y234000D01*
Y233200D01*
Y232400D01*
Y231600D01*
Y230800D01*
Y230000D01*
Y229200D01*
X290800D01*
Y230000D01*
Y230800D01*
Y231600D01*
Y232400D01*
Y233200D01*
Y234000D01*
Y234800D01*
Y235600D01*
Y236400D01*
Y237200D01*
Y238000D01*
Y238800D01*
Y239600D01*
Y240400D01*
Y241200D01*
Y242000D01*
Y242800D01*
X290000D01*
Y243600D01*
X289200D01*
Y244400D01*
X288400D01*
Y245200D01*
X287600D01*
Y246000D01*
X286800D01*
Y246800D01*
X287600D01*
Y246000D01*
X288400D01*
Y245200D01*
X289200D01*
Y244400D01*
X290000D01*
Y245200D01*
Y246000D01*
Y246800D01*
Y247600D01*
Y248400D01*
Y249200D01*
Y250000D01*
Y250800D01*
Y251600D01*
X290800D01*
Y252400D01*
Y253200D01*
Y254000D01*
Y254800D01*
Y255600D01*
Y256400D01*
Y257200D01*
Y258000D01*
Y258800D01*
Y259600D01*
Y260400D01*
X291600D01*
Y261200D01*
Y262000D01*
Y262800D01*
Y263600D01*
Y264400D01*
Y265200D01*
Y266000D01*
Y266800D01*
Y267600D01*
X292400D01*
Y268400D01*
Y269200D01*
Y270000D01*
Y270800D01*
Y271600D01*
Y272400D01*
Y273200D01*
Y274000D01*
X293200D01*
Y274800D01*
Y275600D01*
X291600D01*
Y276400D01*
X289200D01*
Y275600D01*
X287600D01*
Y274800D01*
X286800D01*
Y274000D01*
X286000D01*
Y273200D01*
X285200D01*
Y272400D01*
Y271600D01*
X284400D01*
Y270800D01*
Y270000D01*
Y269200D01*
X283600D01*
Y268400D01*
Y267600D01*
X282800D01*
Y268400D01*
Y269200D01*
Y270000D01*
X283600D01*
Y270800D01*
Y271600D01*
Y272400D01*
X284400D01*
Y273200D01*
Y274000D01*
X285200D01*
Y274800D01*
X286000D01*
Y275600D01*
X286800D01*
Y276400D01*
X287600D01*
Y277200D01*
X288400D01*
Y278000D01*
X282000D01*
Y277200D01*
X280400D01*
Y276400D01*
X279600D01*
Y275600D01*
X278000D01*
Y274800D01*
X277200D01*
Y274000D01*
X276400D01*
Y273200D01*
X275600D01*
Y272400D01*
X274800D01*
Y271600D01*
X276400D01*
Y272400D01*
X277200D01*
Y273200D01*
X278000D01*
Y274000D01*
X278800D01*
Y274800D01*
X280400D01*
Y275600D01*
X281200D01*
Y276400D01*
X282800D01*
Y277200D01*
X286000D01*
Y276400D01*
X285200D01*
Y275600D01*
X284400D01*
Y274800D01*
X283600D01*
Y274000D01*
Y273200D01*
X282800D01*
Y272400D01*
Y271600D01*
Y270800D01*
X282000D01*
Y270000D01*
Y269200D01*
Y268400D01*
X281200D01*
Y267600D01*
Y266800D01*
Y266000D01*
Y265200D01*
Y264400D01*
Y263600D01*
Y262800D01*
X282000D01*
Y262000D01*
Y261200D01*
X281200D01*
Y260400D01*
Y259600D01*
Y258800D01*
Y258000D01*
Y257200D01*
X282000D01*
Y256400D01*
Y255600D01*
Y254800D01*
X282800D01*
Y254000D01*
Y253200D01*
Y252400D01*
X283600D01*
Y251600D01*
Y250800D01*
Y250000D01*
X284400D01*
Y249200D01*
Y248400D01*
X285200D01*
Y247600D01*
Y246800D01*
X286000D01*
Y246000D01*
Y245200D01*
X286800D01*
Y244400D01*
X287600D01*
Y243600D01*
X288400D01*
Y242800D01*
X289200D01*
Y242000D01*
Y241200D01*
Y240400D01*
Y239600D01*
Y238800D01*
Y238000D01*
Y237200D01*
X290000D01*
Y236400D01*
Y235600D01*
Y234800D01*
Y234000D01*
Y233200D01*
Y232400D01*
Y231600D01*
Y230800D01*
Y230000D01*
Y229200D01*
Y228400D01*
X290800D01*
Y227600D01*
Y226800D01*
Y226000D01*
Y225200D01*
Y224400D01*
Y223600D01*
Y222800D01*
X291600D01*
Y222000D01*
Y221200D01*
Y220400D01*
Y219600D01*
X292400D01*
Y218800D01*
Y218000D01*
Y217200D01*
Y216400D01*
X293200D01*
Y215600D01*
Y214800D01*
X294000D01*
Y214000D01*
Y213200D01*
Y212400D01*
X294800D01*
Y211600D01*
Y210800D01*
X295600D01*
Y210000D01*
X296400D01*
Y209200D01*
Y208400D01*
X297200D01*
Y207600D01*
Y206800D01*
X298000D01*
Y206000D01*
Y205200D01*
X298800D01*
Y204400D01*
X299600D01*
Y203600D01*
Y202800D01*
X300400D01*
Y202000D01*
X301200D01*
Y201200D01*
Y200400D01*
X302000D01*
Y199600D01*
Y198800D01*
X302800D01*
Y198000D01*
Y197200D01*
X303600D01*
Y196400D01*
Y195600D01*
X304400D01*
Y194800D01*
X305200D01*
Y194000D01*
X306800D01*
Y194800D01*
X307600D01*
Y195600D01*
Y196400D01*
Y197200D01*
Y198000D01*
Y198800D01*
Y199600D01*
Y200400D01*
X308400D01*
Y201200D01*
Y202000D01*
Y202800D01*
Y203600D01*
Y204400D01*
Y205200D01*
Y206000D01*
Y206800D01*
Y207600D01*
Y208400D01*
X309200D01*
Y207600D01*
X310800D01*
Y208400D01*
Y209200D01*
Y210000D01*
Y210800D01*
Y211600D01*
Y212400D01*
Y213200D01*
X311600D01*
Y214000D01*
Y214800D01*
Y215600D01*
X313200D01*
Y214800D01*
X314000D01*
Y214000D01*
X315600D01*
Y213200D01*
X316400D01*
Y212400D01*
X318000D01*
Y211600D01*
X319600D01*
Y210800D01*
X321200D01*
Y210000D01*
X323600D01*
Y209200D01*
X325200D01*
Y208400D01*
X327600D01*
Y207600D01*
X330000D01*
Y206800D01*
X332400D01*
Y206000D01*
X336400D01*
Y205200D01*
X342000D01*
Y204400D01*
X369200D01*
Y205200D01*
X374800D01*
Y206000D01*
X378800D01*
Y206800D01*
X381200D01*
Y207600D01*
X383600D01*
Y208400D01*
X385200D01*
Y209200D01*
X387600D01*
Y210000D01*
X389200D01*
Y210800D01*
X390800D01*
Y211600D01*
X392400D01*
Y212400D01*
X394000D01*
Y213200D01*
X395600D01*
Y214000D01*
X397200D01*
Y214800D01*
X398000D01*
Y215600D01*
X399600D01*
Y214800D01*
Y214000D01*
Y213200D01*
Y212400D01*
X400400D01*
Y211600D01*
Y210800D01*
Y210000D01*
Y209200D01*
Y208400D01*
Y207600D01*
X401200D01*
Y208400D01*
Y209200D01*
Y210000D01*
X402000D01*
Y209200D01*
Y208400D01*
Y207600D01*
Y206800D01*
X402800D01*
Y206000D01*
Y205200D01*
Y204400D01*
Y203600D01*
Y202800D01*
Y202000D01*
Y201200D01*
Y200400D01*
Y199600D01*
Y198800D01*
X403600D01*
Y198000D01*
Y197200D01*
Y196400D01*
Y195600D01*
Y194800D01*
X404400D01*
Y194000D01*
X406000D01*
Y194800D01*
X406800D01*
Y195600D01*
X407600D01*
Y196400D01*
Y197200D01*
X408400D01*
Y198000D01*
Y198800D01*
Y199600D01*
X409200D01*
Y200400D01*
Y201200D01*
X410000D01*
Y202000D01*
X410800D01*
Y202800D01*
X411600D01*
Y203600D01*
Y204400D01*
X412400D01*
Y205200D01*
Y206000D01*
X411600D01*
Y205200D01*
X410800D01*
Y204400D01*
Y203600D01*
X410000D01*
Y202800D01*
X409200D01*
Y202000D01*
X408400D01*
Y201200D01*
Y200400D01*
X407600D01*
Y199600D01*
Y198800D01*
Y198000D01*
X406800D01*
Y197200D01*
Y196400D01*
X406000D01*
Y195600D01*
X404400D01*
Y196400D01*
Y197200D01*
Y198000D01*
Y198800D01*
Y199600D01*
Y200400D01*
Y201200D01*
Y202000D01*
X403600D01*
Y202800D01*
Y203600D01*
Y204400D01*
Y205200D01*
Y206000D01*
Y206800D01*
Y207600D01*
Y208400D01*
Y209200D01*
X402800D01*
Y210000D01*
Y210800D01*
Y211600D01*
Y212400D01*
Y213200D01*
Y214000D01*
X402000D01*
Y214800D01*
Y215600D01*
Y216400D01*
X401200D01*
Y215600D01*
Y214800D01*
Y214000D01*
X400400D01*
Y214800D01*
Y215600D01*
Y216400D01*
Y217200D01*
X398800D01*
Y216400D01*
X397200D01*
Y215600D01*
X396400D01*
Y214800D01*
X394800D01*
Y214000D01*
X393200D01*
Y213200D01*
X391600D01*
Y212400D01*
X390000D01*
Y211600D01*
X388400D01*
Y210800D01*
X386800D01*
Y210000D01*
X384400D01*
Y209200D01*
X382800D01*
Y208400D01*
X380400D01*
Y207600D01*
X377200D01*
Y206800D01*
X373200D01*
Y206000D01*
X366800D01*
Y205200D01*
X344400D01*
Y206000D01*
X337200D01*
Y206800D01*
X333200D01*
Y207600D01*
X330800D01*
Y208400D01*
X328400D01*
Y209200D01*
X326000D01*
Y210000D01*
X324400D01*
Y210800D01*
X322000D01*
Y211600D01*
X320400D01*
Y212400D01*
X318800D01*
Y213200D01*
X317200D01*
Y214000D01*
X316400D01*
Y214800D01*
X314800D01*
Y215600D01*
X313200D01*
Y216400D01*
X312400D01*
Y217200D01*
X310800D01*
Y216400D01*
Y215600D01*
Y214800D01*
X310000D01*
Y215600D01*
Y216400D01*
X309200D01*
Y215600D01*
Y214800D01*
X308400D01*
Y214000D01*
Y213200D01*
Y212400D01*
Y211600D01*
Y210800D01*
X307600D01*
Y210000D01*
Y209200D01*
Y208400D01*
Y207600D01*
Y206800D01*
Y206000D01*
Y205200D01*
Y204400D01*
Y203600D01*
X306800D01*
Y202800D01*
Y202000D01*
Y201200D01*
Y200400D01*
Y199600D01*
Y198800D01*
Y198000D01*
Y197200D01*
Y196400D01*
Y195600D01*
X305200D01*
Y196400D01*
X304400D01*
Y197200D01*
Y198000D01*
X303600D01*
Y198800D01*
Y199600D01*
X302800D01*
Y200400D01*
Y201200D01*
X302000D01*
Y202000D01*
Y202800D01*
X301200D01*
Y203600D01*
X300400D01*
Y204400D01*
Y205200D01*
X299600D01*
Y206000D01*
X298800D01*
Y206800D01*
Y207600D01*
X298000D01*
Y208400D01*
X297200D01*
Y209200D01*
Y210000D01*
X296400D01*
Y210800D01*
Y211600D01*
X295600D01*
Y212400D01*
X296400D01*
Y211600D01*
X297200D01*
Y210800D01*
Y210000D01*
X298000D01*
Y209200D01*
X298800D01*
Y210000D01*
Y210800D01*
X298000D01*
Y211600D01*
Y212400D01*
X297200D01*
Y213200D01*
Y214000D01*
Y214800D01*
Y215600D01*
Y216400D01*
X298000D01*
Y215600D01*
Y214800D01*
Y214000D01*
X298800D01*
Y213200D01*
Y212400D01*
Y211600D01*
X299600D01*
Y210800D01*
Y210000D01*
X300400D01*
Y209200D01*
Y208400D01*
Y207600D01*
X301200D01*
Y206800D01*
Y206000D01*
X302000D01*
Y205200D01*
Y204400D01*
X302800D01*
Y203600D01*
Y202800D01*
X303600D01*
Y202000D01*
Y201200D01*
X304400D01*
Y200400D01*
Y199600D01*
Y198800D01*
X306000D01*
Y199600D01*
Y200400D01*
Y201200D01*
Y202000D01*
Y202800D01*
Y203600D01*
Y204400D01*
Y205200D01*
Y206000D01*
Y206800D01*
X306800D01*
Y207600D01*
Y208400D01*
Y209200D01*
Y210000D01*
Y210800D01*
Y211600D01*
Y212400D01*
Y213200D01*
X307600D01*
Y214000D01*
Y214800D01*
Y215600D01*
Y216400D01*
X308400D01*
Y217200D01*
Y218000D01*
Y218800D01*
Y219600D01*
X307600D01*
Y220400D01*
X306800D01*
Y221200D01*
X306000D01*
Y222000D01*
X305200D01*
Y222800D01*
X304400D01*
Y223600D01*
X303600D01*
Y224400D01*
Y225200D01*
X302800D01*
Y226000D01*
X302000D01*
Y226800D01*
X301200D01*
Y227600D01*
Y228400D01*
X300400D01*
Y229200D01*
Y230000D01*
X299600D01*
Y230800D01*
Y231600D01*
X298800D01*
Y232400D01*
Y233200D01*
X298000D01*
Y234000D01*
Y234800D01*
Y235600D01*
X297200D01*
Y236400D01*
Y237200D01*
Y238000D01*
Y238800D01*
X296400D01*
Y239600D01*
Y240400D01*
Y241200D01*
Y242000D01*
Y242800D01*
Y243600D01*
Y244400D01*
Y245200D01*
Y246000D01*
Y246800D01*
Y247600D01*
Y248400D01*
Y249200D01*
Y250000D01*
Y250800D01*
Y251600D01*
Y252400D01*
Y253200D01*
Y254000D01*
Y254800D01*
Y255600D01*
X297200D01*
Y256400D01*
Y257200D01*
Y258000D01*
Y258800D01*
Y259600D01*
Y260400D01*
Y261200D01*
Y262000D01*
Y262800D01*
X298000D01*
Y263600D01*
Y264400D01*
Y265200D01*
Y266000D01*
Y266800D01*
Y267600D01*
Y268400D01*
Y269200D01*
Y270000D01*
Y270800D01*
Y271600D01*
X298800D01*
Y272400D01*
Y273200D01*
Y274000D01*
Y274800D01*
Y275600D01*
Y276400D01*
Y277200D01*
Y278000D01*
Y278800D01*
X299600D01*
Y278000D01*
Y277200D01*
Y276400D01*
Y275600D01*
Y274800D01*
Y274000D01*
Y273200D01*
Y272400D01*
Y271600D01*
Y270800D01*
Y270000D01*
Y269200D01*
Y268400D01*
Y267600D01*
Y266800D01*
Y266000D01*
Y265200D01*
X298800D01*
Y264400D01*
Y263600D01*
Y262800D01*
Y262000D01*
Y261200D01*
Y260400D01*
Y259600D01*
Y258800D01*
Y258000D01*
Y257200D01*
X298000D01*
Y256400D01*
Y255600D01*
Y254800D01*
Y254000D01*
Y253200D01*
Y252400D01*
Y251600D01*
Y250800D01*
Y250000D01*
Y249200D01*
X297200D01*
Y248400D01*
Y247600D01*
Y246800D01*
Y246000D01*
Y245200D01*
Y244400D01*
Y243600D01*
Y242800D01*
Y242000D01*
X298000D01*
Y241200D01*
Y240400D01*
Y239600D01*
Y238800D01*
Y238000D01*
X298800D01*
Y237200D01*
Y236400D01*
Y235600D01*
X299600D01*
Y234800D01*
Y234000D01*
Y233200D01*
X300400D01*
Y232400D01*
Y231600D01*
X301200D01*
Y230800D01*
Y230000D01*
X302000D01*
Y229200D01*
Y228400D01*
X302800D01*
Y227600D01*
X303600D01*
Y226800D01*
Y226000D01*
X304400D01*
Y225200D01*
X305200D01*
Y224400D01*
X306000D01*
Y223600D01*
X306800D01*
Y222800D01*
X307600D01*
Y222000D01*
X308400D01*
Y221200D01*
X309200D01*
Y220400D01*
X310000D01*
Y219600D01*
X310800D01*
Y218800D01*
X312400D01*
Y218000D01*
X313200D01*
Y217200D01*
X314800D01*
Y216400D01*
X315600D01*
Y215600D01*
X317200D01*
Y214800D01*
X318800D01*
Y214000D01*
X320400D01*
Y213200D01*
X322000D01*
Y212400D01*
X323600D01*
Y211600D01*
X325200D01*
Y210800D01*
X327600D01*
Y210000D01*
X330000D01*
Y209200D01*
X332400D01*
Y208400D01*
X335600D01*
Y207600D01*
X340400D01*
Y206800D01*
X350800D01*
Y206000D01*
X360400D01*
Y206800D01*
X370800D01*
Y207600D01*
X375600D01*
Y208400D01*
X378800D01*
Y209200D01*
X381200D01*
Y210000D01*
X383600D01*
Y210800D01*
X385200D01*
Y211600D01*
X387600D01*
Y212400D01*
X389200D01*
Y213200D01*
X390800D01*
Y214000D01*
X392400D01*
Y214800D01*
X394000D01*
Y215600D01*
X394800D01*
Y216400D01*
X396400D01*
Y217200D01*
X397200D01*
Y218000D01*
X398800D01*
Y218800D01*
X399600D01*
Y219600D01*
X401200D01*
Y220400D01*
X402000D01*
Y221200D01*
X402800D01*
Y222000D01*
X403600D01*
Y222800D01*
X404400D01*
Y223600D01*
X405200D01*
Y224400D01*
X406000D01*
Y225200D01*
X406800D01*
Y226000D01*
Y226800D01*
X407600D01*
Y227600D01*
X408400D01*
Y228400D01*
Y229200D01*
X409200D01*
Y230000D01*
X410000D01*
Y230800D01*
Y231600D01*
X410800D01*
Y232400D01*
Y233200D01*
Y234000D01*
X411600D01*
Y234800D01*
Y235600D01*
Y236400D01*
X412400D01*
Y237200D01*
Y238000D01*
Y238800D01*
Y239600D01*
X413200D01*
Y240400D01*
Y241200D01*
Y242000D01*
Y242800D01*
Y243600D01*
Y244400D01*
Y245200D01*
Y246000D01*
Y246800D01*
Y247600D01*
Y248400D01*
Y249200D01*
Y250000D01*
Y250800D01*
Y251600D01*
Y252400D01*
Y253200D01*
Y254000D01*
Y254800D01*
X412400D01*
Y255600D01*
Y256400D01*
Y257200D01*
Y258000D01*
Y258800D01*
Y259600D01*
Y260400D01*
Y261200D01*
Y262000D01*
X411600D01*
Y262800D01*
Y263600D01*
Y264400D01*
Y265200D01*
Y266000D01*
Y266800D01*
Y267600D01*
Y268400D01*
Y269200D01*
Y270000D01*
Y270800D01*
Y271600D01*
Y272400D01*
Y273200D01*
Y274000D01*
Y274800D01*
Y275600D01*
Y276400D01*
X412400D01*
Y275600D01*
Y274800D01*
Y274000D01*
Y273200D01*
Y272400D01*
Y271600D01*
Y270800D01*
Y270000D01*
Y269200D01*
Y268400D01*
X413200D01*
Y267600D01*
Y266800D01*
Y266000D01*
Y265200D01*
Y264400D01*
Y263600D01*
Y262800D01*
Y262000D01*
Y261200D01*
Y260400D01*
X414000D01*
Y259600D01*
Y258800D01*
Y258000D01*
Y257200D01*
Y256400D01*
Y255600D01*
Y254800D01*
Y254000D01*
Y253200D01*
X414800D01*
Y252400D01*
Y251600D01*
Y250800D01*
Y250000D01*
Y249200D01*
Y248400D01*
Y247600D01*
Y246800D01*
Y246000D01*
Y245200D01*
Y244400D01*
Y243600D01*
Y242800D01*
Y242000D01*
Y241200D01*
Y240400D01*
X414000D01*
Y239600D01*
Y238800D01*
Y238000D01*
Y237200D01*
Y236400D01*
X413200D01*
Y235600D01*
Y234800D01*
Y234000D01*
X412400D01*
Y233200D01*
Y232400D01*
X411600D01*
Y231600D01*
Y230800D01*
Y230000D01*
X410800D01*
Y229200D01*
Y228400D01*
X410000D01*
Y227600D01*
X409200D01*
Y226800D01*
Y226000D01*
X408400D01*
Y225200D01*
X407600D01*
Y224400D01*
X406800D01*
Y223600D01*
X406000D01*
Y222800D01*
X405200D01*
Y222000D01*
Y221200D01*
X403600D01*
Y220400D01*
X402800D01*
Y219600D01*
Y218800D01*
Y218000D01*
Y217200D01*
Y216400D01*
Y215600D01*
X403600D01*
Y214800D01*
Y214000D01*
Y213200D01*
Y212400D01*
X404400D01*
Y211600D01*
Y210800D01*
Y210000D01*
Y209200D01*
Y208400D01*
Y207600D01*
Y206800D01*
Y206000D01*
X405200D01*
Y205200D01*
Y204400D01*
Y203600D01*
Y202800D01*
Y202000D01*
Y201200D01*
Y200400D01*
Y199600D01*
Y198800D01*
X406000D01*
Y199600D01*
X406800D01*
Y200400D01*
Y201200D01*
X407600D01*
Y202000D01*
Y202800D01*
X408400D01*
Y203600D01*
Y204400D01*
X409200D01*
Y205200D01*
Y206000D01*
Y206800D01*
X410000D01*
Y207600D01*
Y208400D01*
X410800D01*
Y209200D01*
Y210000D01*
X411600D01*
Y210800D01*
Y211600D01*
Y212400D01*
X412400D01*
Y213200D01*
Y214000D01*
Y214800D01*
X413200D01*
Y215600D01*
Y216400D01*
Y217200D01*
X414000D01*
Y216400D01*
Y215600D01*
Y214800D01*
Y214000D01*
Y213200D01*
Y212400D01*
X413200D01*
Y211600D01*
Y210800D01*
X412400D01*
Y210000D01*
X414000D01*
Y209200D01*
X413200D01*
Y208400D01*
Y207600D01*
X412400D01*
Y206800D01*
Y206000D01*
X413200D01*
Y206800D01*
X414000D01*
Y207600D01*
Y208400D01*
X414800D01*
Y209200D01*
Y210000D01*
X414000D01*
Y210800D01*
Y211600D01*
X414800D01*
Y210800D01*
Y210000D01*
X415600D01*
Y210800D01*
X416400D01*
Y211600D01*
Y212400D01*
Y213200D01*
X415600D01*
Y214000D01*
Y214800D01*
X416400D01*
Y214000D01*
Y213200D01*
X417200D01*
Y214000D01*
Y214800D01*
X416400D01*
Y215600D01*
Y216400D01*
X417200D01*
Y215600D01*
Y214800D01*
X418000D01*
Y215600D01*
Y216400D01*
Y217200D01*
X417200D01*
Y218000D01*
Y218800D01*
X418000D01*
Y218000D01*
Y217200D01*
X418800D01*
Y218000D01*
Y218800D01*
Y219600D01*
X419600D01*
Y220400D01*
Y221200D01*
Y222000D01*
Y222800D01*
Y223600D01*
X420400D01*
Y224400D01*
Y225200D01*
Y226000D01*
Y226800D01*
Y227600D01*
Y228400D01*
Y229200D01*
X421200D01*
Y230000D01*
Y230800D01*
Y231600D01*
Y232400D01*
Y233200D01*
Y234000D01*
Y234800D01*
Y235600D01*
Y236400D01*
Y237200D01*
Y238000D01*
Y238800D01*
Y239600D01*
X422000D01*
Y240400D01*
Y241200D01*
Y242000D01*
Y242800D01*
Y243600D01*
X422800D01*
Y244400D01*
X423600D01*
Y245200D01*
X424400D01*
Y246000D01*
Y246800D01*
X425200D01*
Y247600D01*
Y248400D01*
X426000D01*
Y249200D01*
X426800D01*
Y250000D01*
Y250800D01*
X427600D01*
Y251600D01*
Y252400D01*
Y253200D01*
X426800D01*
Y254000D01*
X427600D01*
Y253200D01*
X428400D01*
Y254000D01*
Y254800D01*
Y255600D01*
X427600D01*
Y256400D01*
X428400D01*
Y255600D01*
X429200D01*
Y256400D01*
Y257200D01*
Y258000D01*
X428400D01*
Y258800D01*
Y259600D01*
Y260400D01*
Y261200D01*
X429200D01*
Y260400D01*
Y259600D01*
Y258800D01*
Y258000D01*
X430000D01*
Y258800D01*
Y259600D01*
Y260400D01*
Y261200D01*
Y262000D01*
Y262800D01*
Y263600D01*
Y264400D01*
Y265200D01*
Y266000D01*
Y266800D01*
Y267600D01*
X429200D01*
Y268400D01*
Y269200D01*
Y270000D01*
Y270800D01*
X428400D01*
Y271600D01*
Y272400D01*
X427600D01*
Y273200D01*
Y274000D01*
X426800D01*
Y274800D01*
Y275600D01*
X426000D01*
Y276400D01*
X425200D01*
Y277200D01*
X428400D01*
Y276400D01*
X430000D01*
Y275600D01*
X431600D01*
Y274800D01*
X432400D01*
Y274000D01*
X433200D01*
Y273200D01*
X434800D01*
Y272400D01*
X435600D01*
Y271600D01*
X436400D01*
Y270800D01*
X437200D01*
Y270000D01*
X438000D01*
Y269200D01*
X440400D01*
Y270000D01*
Y270800D01*
Y271600D01*
Y272400D01*
X439600D01*
Y273200D01*
Y274000D01*
Y274800D01*
X438800D01*
Y275600D01*
Y276400D01*
X438000D01*
Y277200D01*
Y278000D01*
X437200D01*
Y278800D01*
Y279600D01*
X436400D01*
Y280400D01*
X435600D01*
Y281200D01*
Y282000D01*
X438000D01*
Y282800D01*
X434800D01*
Y282000D01*
X433200D01*
Y281200D01*
X434000D01*
Y280400D01*
X434800D01*
Y279600D01*
X435600D01*
Y278800D01*
X436400D01*
Y278000D01*
Y277200D01*
X437200D01*
Y276400D01*
X438000D01*
Y275600D01*
Y274800D01*
Y274000D01*
X438800D01*
Y273200D01*
Y272400D01*
X439600D01*
Y271600D01*
Y270800D01*
Y270000D01*
X438800D01*
Y270800D01*
X437200D01*
Y271600D01*
X436400D01*
Y272400D01*
X435600D01*
Y273200D01*
X434800D01*
Y274000D01*
X434000D01*
Y274800D01*
X433200D01*
Y275600D01*
X431600D01*
Y276400D01*
X430800D01*
Y277200D01*
X429200D01*
Y278000D01*
X425200D01*
Y278800D01*
X424400D01*
Y278000D01*
X422800D01*
Y277200D01*
X423600D01*
Y276400D01*
X424400D01*
Y275600D01*
X425200D01*
Y274800D01*
X426000D01*
Y274000D01*
X426800D01*
Y273200D01*
Y272400D01*
X427600D01*
Y271600D01*
Y270800D01*
Y270000D01*
X428400D01*
Y269200D01*
Y268400D01*
Y267600D01*
Y266800D01*
X429200D01*
Y266000D01*
Y265200D01*
Y264400D01*
Y263600D01*
Y262800D01*
Y262000D01*
X428400D01*
Y262800D01*
Y263600D01*
Y264400D01*
Y265200D01*
Y266000D01*
Y266800D01*
X427600D01*
Y267600D01*
Y268400D01*
Y269200D01*
X426800D01*
Y270000D01*
Y270800D01*
X426000D01*
Y271600D01*
Y272400D01*
X425200D01*
Y273200D01*
Y274000D01*
X424400D01*
Y274800D01*
X423600D01*
Y275600D01*
X422000D01*
Y276400D01*
X419600D01*
Y275600D01*
X418000D01*
Y274800D01*
Y274000D01*
Y273200D01*
X418800D01*
Y272400D01*
Y271600D01*
Y270800D01*
Y270000D01*
Y269200D01*
Y268400D01*
Y267600D01*
Y266800D01*
X419600D01*
Y266000D01*
Y265200D01*
Y264400D01*
Y263600D01*
Y262800D01*
Y262000D01*
Y261200D01*
Y260400D01*
Y259600D01*
X420400D01*
Y258800D01*
Y258000D01*
Y257200D01*
Y256400D01*
Y255600D01*
Y254800D01*
Y254000D01*
Y253200D01*
Y252400D01*
Y251600D01*
Y250800D01*
Y250000D01*
Y249200D01*
X421200D01*
Y248400D01*
Y247600D01*
Y246800D01*
Y246000D01*
Y245200D01*
Y244400D01*
Y243600D01*
X420400D01*
Y242800D01*
Y242000D01*
Y241200D01*
Y240400D01*
Y239600D01*
Y238800D01*
Y238000D01*
Y237200D01*
Y236400D01*
Y235600D01*
Y234800D01*
Y234000D01*
Y233200D01*
Y232400D01*
Y231600D01*
Y230800D01*
X419600D01*
Y231600D01*
Y232400D01*
Y233200D01*
Y234000D01*
Y234800D01*
Y235600D01*
Y236400D01*
Y237200D01*
Y238000D01*
Y238800D01*
Y239600D01*
Y240400D01*
Y241200D01*
Y242000D01*
Y242800D01*
Y243600D01*
Y244400D01*
Y245200D01*
Y246000D01*
Y246800D01*
Y247600D01*
Y248400D01*
Y249200D01*
Y250000D01*
Y250800D01*
Y251600D01*
Y252400D01*
Y253200D01*
X418800D01*
Y254000D01*
Y254800D01*
Y255600D01*
Y256400D01*
Y257200D01*
Y258000D01*
Y258800D01*
Y259600D01*
Y260400D01*
Y261200D01*
X418000D01*
Y262000D01*
Y262800D01*
Y263600D01*
Y264400D01*
Y265200D01*
Y266000D01*
Y266800D01*
Y267600D01*
Y268400D01*
X417200D01*
Y269200D01*
Y270000D01*
Y270800D01*
Y271600D01*
Y272400D01*
Y273200D01*
Y274000D01*
Y274800D01*
X416400D01*
Y275600D01*
Y276400D01*
Y277200D01*
Y278000D01*
Y278800D01*
Y279600D01*
Y280400D01*
X415600D01*
Y281200D01*
Y282000D01*
Y282800D01*
Y283600D01*
Y284400D01*
Y285200D01*
X414800D01*
Y286000D01*
Y286800D01*
Y287600D01*
Y288400D01*
Y289200D01*
Y290000D01*
Y290800D01*
X414000D01*
Y291600D01*
Y292400D01*
Y293200D01*
Y294000D01*
X414800D01*
Y293200D01*
Y292400D01*
Y291600D01*
Y290800D01*
X415600D01*
Y290000D01*
Y289200D01*
Y288400D01*
X416400D01*
Y287600D01*
Y286800D01*
Y286000D01*
Y285200D01*
Y284400D01*
X417200D01*
Y283600D01*
Y282800D01*
Y282000D01*
Y281200D01*
Y280400D01*
Y279600D01*
Y278800D01*
X418000D01*
Y278000D01*
Y277200D01*
X419600D01*
Y278000D01*
Y278800D01*
Y279600D01*
Y280400D01*
Y281200D01*
Y282000D01*
Y282800D01*
X420400D01*
Y283600D01*
Y284400D01*
Y285200D01*
Y286000D01*
Y286800D01*
Y287600D01*
Y288400D01*
Y289200D01*
Y290000D01*
Y290800D01*
Y291600D01*
Y292400D01*
Y293200D01*
Y294000D01*
Y294800D01*
X419600D01*
Y295600D01*
Y296400D01*
Y297200D01*
Y298000D01*
Y298800D01*
Y299600D01*
Y300400D01*
Y301200D01*
Y302000D01*
X418800D01*
Y302800D01*
Y303600D01*
Y304400D01*
Y305200D01*
X418000D01*
Y306000D01*
Y306800D01*
Y307600D01*
X417200D01*
Y308400D01*
Y309200D01*
Y310000D01*
X416400D01*
Y310800D01*
Y311600D01*
X415600D01*
Y312400D01*
Y313200D01*
X414800D01*
Y314000D01*
X414000D01*
Y314800D01*
Y315600D01*
X413200D01*
Y316400D01*
X412400D01*
Y317200D01*
Y318000D01*
X411600D01*
Y318800D01*
X410800D01*
Y319600D01*
X410000D01*
Y320400D01*
X409200D01*
Y321200D01*
Y322000D01*
X408400D01*
Y322800D01*
X407600D01*
Y323600D01*
X406800D01*
Y324400D01*
X405200D01*
Y325200D01*
X404400D01*
Y326000D01*
X403600D01*
Y326800D01*
X402800D01*
Y327600D01*
X401200D01*
Y328400D01*
X400400D01*
Y329200D01*
X398800D01*
Y330000D01*
X398000D01*
Y330800D01*
X396400D01*
Y331600D01*
X394800D01*
Y332400D01*
X392400D01*
Y333200D01*
X390000D01*
Y334000D01*
X387600D01*
Y334800D01*
X385200D01*
Y335600D01*
X381200D01*
Y336400D01*
D02*
G37*
G36*
X279600Y330800D02*
X278000D01*
Y330000D01*
X277200D01*
Y329200D01*
Y328400D01*
X278000D01*
Y329200D01*
X278800D01*
Y330000D01*
X279600D01*
Y330800D01*
D02*
G37*
G36*
X277200Y328400D02*
X276400D01*
Y327600D01*
X277200D01*
Y328400D01*
D02*
G37*
G36*
X406800Y336400D02*
X402000D01*
Y335600D01*
X398800D01*
Y334800D01*
X397200D01*
Y334000D01*
X395600D01*
Y333200D01*
X396400D01*
Y332400D01*
X398000D01*
Y331600D01*
X399600D01*
Y330800D01*
X400400D01*
Y330000D01*
X402000D01*
Y329200D01*
X402800D01*
Y328400D01*
X404400D01*
Y327600D01*
X405200D01*
Y326800D01*
X406000D01*
Y326000D01*
X406800D01*
Y325200D01*
X409200D01*
Y326000D01*
X410800D01*
Y326800D01*
Y327600D01*
X410000D01*
Y328400D01*
Y329200D01*
X409200D01*
Y330000D01*
Y330800D01*
X408400D01*
Y331600D01*
Y332400D01*
X407600D01*
Y333200D01*
Y334000D01*
X406800D01*
Y334800D01*
Y335600D01*
Y336400D01*
D02*
G37*
G36*
X309200D02*
X304400D01*
Y335600D01*
Y334800D01*
Y334000D01*
X303600D01*
Y333200D01*
Y332400D01*
Y331600D01*
X302800D01*
Y330800D01*
Y330000D01*
X302000D01*
Y329200D01*
Y328400D01*
X301200D01*
Y327600D01*
Y326800D01*
X300400D01*
Y326000D01*
X301200D01*
Y325200D01*
X303600D01*
Y326000D01*
X304400D01*
Y326800D01*
X306000D01*
Y327600D01*
X306800D01*
Y328400D01*
X307600D01*
Y329200D01*
X309200D01*
Y330000D01*
X310000D01*
Y330800D01*
X311600D01*
Y331600D01*
X313200D01*
Y332400D01*
X314800D01*
Y333200D01*
X315600D01*
Y334000D01*
X314000D01*
Y334800D01*
X311600D01*
Y335600D01*
X309200D01*
Y336400D01*
D02*
G37*
G36*
X299600Y337200D02*
X295600D01*
Y336400D01*
Y335600D01*
Y334800D01*
X294800D01*
Y334000D01*
Y333200D01*
X294000D01*
Y332400D01*
Y331600D01*
X293200D01*
Y330800D01*
Y330000D01*
X292400D01*
Y329200D01*
Y328400D01*
X291600D01*
Y327600D01*
Y326800D01*
X290800D01*
Y326000D01*
Y325200D01*
X290000D01*
Y324400D01*
X289200D01*
Y325200D01*
Y326000D01*
X290000D01*
Y326800D01*
Y327600D01*
X290800D01*
Y328400D01*
Y329200D01*
X291600D01*
Y330000D01*
Y330800D01*
Y331600D01*
X292400D01*
Y332400D01*
Y333200D01*
X293200D01*
Y334000D01*
Y334800D01*
X294000D01*
Y335600D01*
Y336400D01*
X292400D01*
Y335600D01*
X290000D01*
Y334800D01*
X288400D01*
Y334000D01*
X286800D01*
Y333200D01*
X285200D01*
Y332400D01*
X283600D01*
Y331600D01*
X282800D01*
Y330800D01*
X282000D01*
Y330000D01*
X281200D01*
Y329200D01*
X280400D01*
Y328400D01*
X279600D01*
Y327600D01*
X278800D01*
Y326800D01*
X278000D01*
Y326000D01*
X277200D01*
Y325200D01*
X276400D01*
Y324400D01*
Y323600D01*
X275600D01*
Y322800D01*
X274800D01*
Y322000D01*
Y321200D01*
X274000D01*
Y320400D01*
Y319600D01*
X273200D01*
Y318800D01*
Y318000D01*
X272400D01*
Y317200D01*
Y316400D01*
X271600D01*
Y315600D01*
Y314800D01*
Y314000D01*
Y313200D01*
X270800D01*
Y312400D01*
Y311600D01*
Y310800D01*
Y310000D01*
Y309200D01*
Y308400D01*
Y307600D01*
Y306800D01*
Y306000D01*
Y305200D01*
Y304400D01*
Y303600D01*
Y302800D01*
Y302000D01*
Y301200D01*
Y300400D01*
X271600D01*
Y299600D01*
Y298800D01*
Y298000D01*
Y297200D01*
X272400D01*
Y296400D01*
Y295600D01*
X273200D01*
Y294800D01*
Y294000D01*
Y293200D01*
X274000D01*
Y292400D01*
Y291600D01*
X274800D01*
Y290800D01*
X275600D01*
Y290000D01*
Y289200D01*
X276400D01*
Y288400D01*
X277200D01*
Y287600D01*
X278000D01*
Y286800D01*
Y286000D01*
X278800D01*
Y285200D01*
X279600D01*
Y284400D01*
X280400D01*
Y283600D01*
X282000D01*
Y282800D01*
X282800D01*
Y282000D01*
X283600D01*
Y281200D01*
X285200D01*
Y280400D01*
X286800D01*
Y279600D01*
X288400D01*
Y278800D01*
X290000D01*
Y279600D01*
Y280400D01*
X289200D01*
Y281200D01*
Y282000D01*
Y282800D01*
Y283600D01*
Y284400D01*
Y285200D01*
Y286000D01*
Y286800D01*
Y287600D01*
X288400D01*
Y288400D01*
X287600D01*
Y289200D01*
X286800D01*
Y290000D01*
X286000D01*
Y290800D01*
X285200D01*
Y291600D01*
X283600D01*
Y292400D01*
Y293200D01*
Y294000D01*
X282800D01*
Y294800D01*
X282000D01*
Y295600D01*
X280400D01*
Y296400D01*
Y297200D01*
X279600D01*
Y298000D01*
X278800D01*
Y298800D01*
X278000D01*
Y299600D01*
X277200D01*
Y300400D01*
X278000D01*
Y299600D01*
X278800D01*
Y298800D01*
X279600D01*
Y298000D01*
X280400D01*
Y297200D01*
X281200D01*
Y296400D01*
X282000D01*
Y295600D01*
X282800D01*
Y294800D01*
X283600D01*
Y294000D01*
X285200D01*
Y293200D01*
Y292400D01*
X286000D01*
Y291600D01*
X286800D01*
Y290800D01*
X287600D01*
Y290000D01*
X288400D01*
Y289200D01*
X289200D01*
Y290000D01*
Y290800D01*
Y291600D01*
Y292400D01*
Y293200D01*
Y294000D01*
Y294800D01*
X288400D01*
Y295600D01*
X287600D01*
Y296400D01*
Y297200D01*
X286000D01*
Y298000D01*
Y298800D01*
X285200D01*
Y299600D01*
X284400D01*
Y300400D01*
X282800D01*
Y301200D01*
Y302000D01*
X282000D01*
Y302800D01*
X281200D01*
Y303600D01*
X280400D01*
Y304400D01*
X279600D01*
Y305200D01*
X280400D01*
Y304400D01*
X281200D01*
Y303600D01*
X282000D01*
Y302800D01*
X282800D01*
Y302000D01*
X283600D01*
Y301200D01*
X284400D01*
Y300400D01*
X285200D01*
Y299600D01*
X286000D01*
Y298800D01*
X286800D01*
Y299600D01*
X287600D01*
Y298800D01*
Y298000D01*
X288400D01*
Y297200D01*
X289200D01*
Y298000D01*
X290000D01*
Y298800D01*
Y299600D01*
Y300400D01*
Y301200D01*
Y302000D01*
X288400D01*
Y302800D01*
Y303600D01*
X287600D01*
Y304400D01*
X286800D01*
Y305200D01*
X285200D01*
Y306000D01*
Y306800D01*
X284400D01*
Y307600D01*
X283600D01*
Y308400D01*
X282800D01*
Y309200D01*
X282000D01*
Y310000D01*
X281200D01*
Y310800D01*
X280400D01*
Y311600D01*
X281200D01*
Y310800D01*
X282800D01*
Y310000D01*
Y309200D01*
X283600D01*
Y308400D01*
X284400D01*
Y307600D01*
X286000D01*
Y306800D01*
Y306000D01*
X286800D01*
Y305200D01*
X288400D01*
Y304400D01*
X289200D01*
Y305200D01*
X290000D01*
Y306000D01*
Y306800D01*
X290800D01*
Y307600D01*
Y308400D01*
X291600D01*
Y309200D01*
Y310000D01*
X292400D01*
Y310800D01*
Y311600D01*
Y312400D01*
X293200D01*
Y313200D01*
Y314000D01*
X294000D01*
Y314800D01*
Y315600D01*
X294800D01*
Y316400D01*
Y317200D01*
X295600D01*
Y318000D01*
Y318800D01*
X296400D01*
Y318000D01*
X297200D01*
Y318800D01*
X296400D01*
Y319600D01*
Y320400D01*
X295600D01*
Y321200D01*
X294800D01*
Y322000D01*
X293200D01*
Y321200D01*
Y320400D01*
X292400D01*
Y319600D01*
Y318800D01*
X291600D01*
Y319600D01*
Y320400D01*
Y321200D01*
X292400D01*
Y322000D01*
Y322800D01*
X291600D01*
Y323600D01*
X290800D01*
Y324400D01*
X291600D01*
Y323600D01*
X293200D01*
Y324400D01*
X294000D01*
Y325200D01*
Y326000D01*
X294800D01*
Y326800D01*
Y327600D01*
X295600D01*
Y328400D01*
Y329200D01*
X296400D01*
Y330000D01*
Y330800D01*
Y331600D01*
X297200D01*
Y332400D01*
Y333200D01*
X298000D01*
Y334000D01*
Y334800D01*
X298800D01*
Y335600D01*
Y336400D01*
X299600D01*
Y337200D01*
D02*
G37*
G36*
X303600D02*
X300400D01*
Y336400D01*
Y335600D01*
Y334800D01*
X299600D01*
Y334000D01*
Y333200D01*
X298800D01*
Y332400D01*
Y331600D01*
X298000D01*
Y330800D01*
Y330000D01*
X297200D01*
Y329200D01*
Y328400D01*
X296400D01*
Y327600D01*
Y326800D01*
X295600D01*
Y326000D01*
Y325200D01*
X294800D01*
Y324400D01*
Y323600D01*
X294000D01*
Y322800D01*
X294800D01*
Y322000D01*
X296400D01*
Y321200D01*
X297200D01*
Y322000D01*
Y322800D01*
X298000D01*
Y323600D01*
Y324400D01*
X298800D01*
Y325200D01*
Y326000D01*
X297200D01*
Y326800D01*
X299600D01*
Y327600D01*
Y328400D01*
X300400D01*
Y329200D01*
Y330000D01*
X301200D01*
Y330800D01*
Y331600D01*
X302000D01*
Y332400D01*
Y333200D01*
X302800D01*
Y334000D01*
Y334800D01*
Y335600D01*
X303600D01*
Y336400D01*
Y337200D01*
D02*
G37*
G36*
X411600Y325200D02*
X410000D01*
Y324400D01*
X409200D01*
Y323600D01*
Y322800D01*
X410000D01*
Y322000D01*
X410800D01*
Y321200D01*
X411600D01*
Y320400D01*
X413200D01*
Y321200D01*
Y322000D01*
Y322800D01*
X412400D01*
Y323600D01*
Y324400D01*
X411600D01*
Y325200D01*
D02*
G37*
G36*
X300400D02*
X299600D01*
Y324400D01*
Y323600D01*
X298800D01*
Y322800D01*
Y322000D01*
X298000D01*
Y321200D01*
Y320400D01*
X299600D01*
Y321200D01*
Y322000D01*
X300400D01*
Y322800D01*
X301200D01*
Y323600D01*
X302000D01*
Y324400D01*
X300400D01*
Y325200D01*
D02*
G37*
G36*
X298000Y319600D02*
X297200D01*
Y318800D01*
X298000D01*
Y319600D01*
D02*
G37*
G36*
X415600Y337200D02*
X412400D01*
Y336400D01*
Y335600D01*
X413200D01*
Y334800D01*
Y334000D01*
X414000D01*
Y333200D01*
Y332400D01*
Y331600D01*
X414800D01*
Y330800D01*
Y330000D01*
X415600D01*
Y329200D01*
Y328400D01*
X416400D01*
Y327600D01*
Y326800D01*
X417200D01*
Y326000D01*
Y325200D01*
Y324400D01*
X418000D01*
Y323600D01*
X418800D01*
Y322800D01*
Y322000D01*
Y321200D01*
X419600D01*
Y320400D01*
Y319600D01*
X420400D01*
Y318800D01*
Y318000D01*
X421200D01*
Y317200D01*
Y316400D01*
X420400D01*
Y317200D01*
Y318000D01*
X419600D01*
Y318800D01*
Y319600D01*
X418800D01*
Y320400D01*
Y321200D01*
X418000D01*
Y322000D01*
X416400D01*
Y322800D01*
X417200D01*
Y323600D01*
Y324400D01*
X416400D01*
Y325200D01*
Y326000D01*
X415600D01*
Y326800D01*
X414000D01*
Y327600D01*
X414800D01*
Y328400D01*
Y329200D01*
X414000D01*
Y330000D01*
Y330800D01*
X413200D01*
Y331600D01*
Y332400D01*
X412400D01*
Y333200D01*
Y334000D01*
X411600D01*
Y334800D01*
Y335600D01*
X410800D01*
Y336400D01*
Y337200D01*
X407600D01*
Y336400D01*
Y335600D01*
X408400D01*
Y334800D01*
Y334000D01*
X409200D01*
Y333200D01*
Y332400D01*
X410000D01*
Y331600D01*
Y330800D01*
X410800D01*
Y330000D01*
Y329200D01*
Y328400D01*
X411600D01*
Y327600D01*
Y326800D01*
X414000D01*
Y326000D01*
X412400D01*
Y325200D01*
X413200D01*
Y324400D01*
Y323600D01*
Y322800D01*
X414000D01*
Y322000D01*
X416400D01*
Y321200D01*
X414800D01*
Y320400D01*
Y319600D01*
X415600D01*
Y318800D01*
Y318000D01*
X416400D01*
Y317200D01*
Y316400D01*
X415600D01*
Y317200D01*
Y318000D01*
X414800D01*
Y318800D01*
Y319600D01*
X413200D01*
Y318800D01*
Y318000D01*
X414000D01*
Y317200D01*
X414800D01*
Y316400D01*
Y315600D01*
X415600D01*
Y314800D01*
Y314000D01*
X416400D01*
Y313200D01*
Y312400D01*
X417200D01*
Y311600D01*
Y310800D01*
X418000D01*
Y310000D01*
Y309200D01*
X418800D01*
Y308400D01*
Y307600D01*
X419600D01*
Y306800D01*
Y306000D01*
Y305200D01*
X420400D01*
Y304400D01*
Y303600D01*
Y302800D01*
X421200D01*
Y303600D01*
X422000D01*
Y304400D01*
X422800D01*
Y305200D01*
X423600D01*
Y306000D01*
X424400D01*
Y306800D01*
X425200D01*
Y307600D01*
X426000D01*
Y306800D01*
Y306000D01*
X425200D01*
Y305200D01*
X424400D01*
Y304400D01*
X423600D01*
Y303600D01*
X422800D01*
Y302800D01*
X422000D01*
Y302000D01*
X421200D01*
Y301200D01*
Y300400D01*
Y299600D01*
Y298800D01*
Y298000D01*
Y297200D01*
X422800D01*
Y298000D01*
X423600D01*
Y298800D01*
X424400D01*
Y299600D01*
X425200D01*
Y300400D01*
X426000D01*
Y301200D01*
X426800D01*
Y302000D01*
X427600D01*
Y302800D01*
X429200D01*
Y302000D01*
X428400D01*
Y301200D01*
X427600D01*
Y300400D01*
X426800D01*
Y299600D01*
X426000D01*
Y298800D01*
X425200D01*
Y298000D01*
X424400D01*
Y297200D01*
X423600D01*
Y296400D01*
X422800D01*
Y295600D01*
X422000D01*
Y294800D01*
X421200D01*
Y294000D01*
Y293200D01*
Y292400D01*
Y291600D01*
Y290800D01*
Y290000D01*
Y289200D01*
X422800D01*
Y290000D01*
X423600D01*
Y290800D01*
X424400D01*
Y290000D01*
Y289200D01*
X423600D01*
Y288400D01*
X422800D01*
Y287600D01*
X422000D01*
Y286800D01*
Y286000D01*
X421200D01*
Y285200D01*
Y284400D01*
Y283600D01*
Y282800D01*
Y282000D01*
Y281200D01*
Y280400D01*
Y279600D01*
Y278800D01*
X422800D01*
Y279600D01*
X424400D01*
Y280400D01*
X426000D01*
Y281200D01*
X426800D01*
Y282000D01*
X428400D01*
Y282800D01*
X429200D01*
Y283600D01*
X430000D01*
Y284400D01*
X430800D01*
Y285200D01*
X431600D01*
Y286000D01*
X432400D01*
Y286800D01*
X433200D01*
Y287600D01*
X434000D01*
Y288400D01*
X434800D01*
Y289200D01*
Y290000D01*
X435600D01*
Y290800D01*
X436400D01*
Y291600D01*
Y292400D01*
X437200D01*
Y293200D01*
Y294000D01*
X438000D01*
Y294800D01*
Y295600D01*
X438800D01*
Y296400D01*
Y297200D01*
Y298000D01*
X439600D01*
Y298800D01*
Y299600D01*
Y300400D01*
Y301200D01*
Y302000D01*
X440400D01*
Y302800D01*
Y303600D01*
Y304400D01*
Y305200D01*
Y306000D01*
Y306800D01*
Y307600D01*
Y308400D01*
Y309200D01*
Y310000D01*
Y310800D01*
Y311600D01*
X439600D01*
Y312400D01*
Y313200D01*
Y314000D01*
Y314800D01*
X438800D01*
Y315600D01*
Y316400D01*
Y317200D01*
X438000D01*
Y318000D01*
Y318800D01*
Y319600D01*
X437200D01*
Y320400D01*
Y321200D01*
X436400D01*
Y322000D01*
X435600D01*
Y322800D01*
Y323600D01*
X434800D01*
Y324400D01*
X434000D01*
Y325200D01*
Y326000D01*
X433200D01*
Y326800D01*
X432400D01*
Y327600D01*
X431600D01*
Y328400D01*
X430800D01*
Y329200D01*
X430000D01*
Y330000D01*
X429200D01*
Y330800D01*
X428400D01*
Y331600D01*
X426800D01*
Y332400D01*
X426000D01*
Y333200D01*
X424400D01*
Y334000D01*
X422800D01*
Y334800D01*
X421200D01*
Y335600D01*
X418800D01*
Y336400D01*
X417200D01*
Y335600D01*
X418000D01*
Y334800D01*
Y334000D01*
X418800D01*
Y333200D01*
Y332400D01*
X419600D01*
Y331600D01*
Y330800D01*
Y330000D01*
X420400D01*
Y329200D01*
Y328400D01*
X421200D01*
Y327600D01*
Y326800D01*
X422000D01*
Y326000D01*
Y325200D01*
X422800D01*
Y324400D01*
Y323600D01*
X423600D01*
Y322800D01*
Y322000D01*
Y321200D01*
X424400D01*
Y320400D01*
Y319600D01*
X425200D01*
Y318800D01*
Y318000D01*
X426000D01*
Y317200D01*
Y316400D01*
X426800D01*
Y315600D01*
Y314800D01*
X427600D01*
Y314000D01*
Y313200D01*
X428400D01*
Y312400D01*
Y311600D01*
X427600D01*
Y312400D01*
Y313200D01*
X426800D01*
Y314000D01*
Y314800D01*
X426000D01*
Y315600D01*
Y316400D01*
X425200D01*
Y317200D01*
Y318000D01*
X424400D01*
Y318800D01*
Y319600D01*
X423600D01*
Y320400D01*
Y321200D01*
X422800D01*
Y322000D01*
Y322800D01*
X422000D01*
Y323600D01*
Y324400D01*
X421200D01*
Y325200D01*
Y326000D01*
X420400D01*
Y326800D01*
Y327600D01*
X419600D01*
Y328400D01*
Y329200D01*
X418800D01*
Y330000D01*
Y330800D01*
X418000D01*
Y331600D01*
Y332400D01*
X417200D01*
Y333200D01*
Y334000D01*
X416400D01*
Y334800D01*
Y335600D01*
X415600D01*
Y336400D01*
Y337200D01*
D02*
G37*
G36*
X290800Y304400D02*
X290000D01*
Y303600D01*
X289200D01*
Y302800D01*
X290800D01*
Y303600D01*
Y304400D01*
D02*
G37*
G36*
X438800Y292400D02*
X438000D01*
Y291600D01*
X437200D01*
Y290800D01*
Y290000D01*
X436400D01*
Y289200D01*
Y288400D01*
X437200D01*
Y289200D01*
X438000D01*
Y290000D01*
Y290800D01*
X438800D01*
Y291600D01*
Y292400D01*
D02*
G37*
G36*
X436400Y288400D02*
X435600D01*
Y287600D01*
X434800D01*
Y286800D01*
X434000D01*
Y286000D01*
Y285200D01*
X434800D01*
Y286000D01*
X435600D01*
Y286800D01*
X436400D01*
Y287600D01*
Y288400D01*
D02*
G37*
G36*
X443600D02*
X442000D01*
Y287600D01*
X441200D01*
Y286800D01*
X439600D01*
Y286000D01*
X438000D01*
Y285200D01*
X435600D01*
Y284400D01*
X434000D01*
Y285200D01*
X433200D01*
Y284400D01*
X432400D01*
Y283600D01*
X436400D01*
Y284400D01*
X438800D01*
Y283600D01*
X438000D01*
Y282800D01*
X439600D01*
Y283600D01*
X440400D01*
Y284400D01*
X441200D01*
Y285200D01*
X442000D01*
Y286000D01*
Y286800D01*
X442800D01*
Y287600D01*
X443600D01*
Y288400D01*
D02*
G37*
G36*
X276400Y327600D02*
X275600D01*
Y326800D01*
X274800D01*
Y326000D01*
X274000D01*
Y325200D01*
Y324400D01*
X273200D01*
Y323600D01*
X272400D01*
Y322800D01*
Y322000D01*
X271600D01*
Y321200D01*
Y320400D01*
X270800D01*
Y319600D01*
Y318800D01*
Y318000D01*
X270000D01*
Y317200D01*
Y316400D01*
Y315600D01*
X269200D01*
Y314800D01*
Y314000D01*
Y313200D01*
Y312400D01*
X268400D01*
Y311600D01*
Y310800D01*
Y310000D01*
Y309200D01*
Y308400D01*
Y307600D01*
Y306800D01*
Y306000D01*
Y305200D01*
Y304400D01*
Y303600D01*
Y302800D01*
Y302000D01*
Y301200D01*
X269200D01*
Y300400D01*
Y299600D01*
Y298800D01*
Y298000D01*
Y297200D01*
X270000D01*
Y296400D01*
Y295600D01*
Y294800D01*
X270800D01*
Y294000D01*
Y293200D01*
X271600D01*
Y292400D01*
Y291600D01*
X272400D01*
Y290800D01*
Y290000D01*
X273200D01*
Y289200D01*
Y288400D01*
X274000D01*
Y287600D01*
X274800D01*
Y286800D01*
X275600D01*
Y286000D01*
X276400D01*
Y285200D01*
X277200D01*
Y284400D01*
X275600D01*
Y285200D01*
X273200D01*
Y286000D01*
X271600D01*
Y286800D01*
X270800D01*
Y287600D01*
X269200D01*
Y288400D01*
X268400D01*
Y287600D01*
Y286800D01*
X269200D01*
Y286000D01*
X270000D01*
Y285200D01*
Y284400D01*
X270800D01*
Y283600D01*
X271600D01*
Y282800D01*
X273200D01*
Y282000D01*
X275600D01*
Y281200D01*
Y280400D01*
X274800D01*
Y279600D01*
Y278800D01*
X275600D01*
Y279600D01*
X276400D01*
Y280400D01*
X277200D01*
Y281200D01*
X278000D01*
Y282000D01*
X276400D01*
Y282800D01*
X274000D01*
Y283600D01*
X272400D01*
Y284400D01*
X271600D01*
Y285200D01*
X270800D01*
Y286000D01*
X271600D01*
Y285200D01*
X272400D01*
Y284400D01*
X274800D01*
Y283600D01*
X278800D01*
Y284400D01*
X278000D01*
Y285200D01*
X277200D01*
Y286000D01*
X276400D01*
Y286800D01*
X275600D01*
Y287600D01*
Y288400D01*
X274800D01*
Y289200D01*
X274000D01*
Y290000D01*
Y290800D01*
X273200D01*
Y291600D01*
Y292400D01*
X272400D01*
Y293200D01*
Y294000D01*
X271600D01*
Y294800D01*
Y295600D01*
X270800D01*
Y296400D01*
Y297200D01*
Y298000D01*
Y298800D01*
X270000D01*
Y299600D01*
Y300400D01*
Y301200D01*
Y302000D01*
X269200D01*
Y302800D01*
Y303600D01*
Y304400D01*
Y305200D01*
Y306000D01*
Y306800D01*
Y307600D01*
Y308400D01*
Y309200D01*
Y310000D01*
Y310800D01*
X270000D01*
Y311600D01*
Y312400D01*
Y313200D01*
Y314000D01*
Y314800D01*
X270800D01*
Y315600D01*
Y316400D01*
Y317200D01*
X271600D01*
Y318000D01*
Y318800D01*
Y319600D01*
X272400D01*
Y320400D01*
Y321200D01*
X273200D01*
Y322000D01*
Y322800D01*
X274000D01*
Y323600D01*
X274800D01*
Y324400D01*
Y325200D01*
X275600D01*
Y326000D01*
X276400D01*
Y326800D01*
Y327600D01*
D02*
G37*
G36*
X430800Y282000D02*
X429200D01*
Y281200D01*
X428400D01*
Y280400D01*
X427600D01*
Y279600D01*
X428400D01*
Y278800D01*
X430800D01*
Y278000D01*
X431600D01*
Y277200D01*
X433200D01*
Y276400D01*
X434000D01*
Y275600D01*
X434800D01*
Y274800D01*
X435600D01*
Y274000D01*
X437200D01*
Y274800D01*
X436400D01*
Y275600D01*
Y276400D01*
X435600D01*
Y277200D01*
X434800D01*
Y278000D01*
Y278800D01*
X434000D01*
Y279600D01*
X433200D01*
Y280400D01*
X432400D01*
Y281200D01*
X430800D01*
Y282000D01*
D02*
G37*
G36*
X281200D02*
X280400D01*
Y281200D01*
X278800D01*
Y280400D01*
X278000D01*
Y279600D01*
X277200D01*
Y278800D01*
X276400D01*
Y278000D01*
Y277200D01*
X275600D01*
Y276400D01*
X274800D01*
Y275600D01*
Y274800D01*
X274000D01*
Y274000D01*
X275600D01*
Y274800D01*
X276400D01*
Y275600D01*
X277200D01*
Y276400D01*
X278000D01*
Y277200D01*
X279600D01*
Y278000D01*
X281200D01*
Y278800D01*
X282800D01*
Y279600D01*
X283600D01*
Y280400D01*
X282000D01*
Y281200D01*
X281200D01*
Y282000D01*
D02*
G37*
G36*
X274800Y271600D02*
X274000D01*
Y270800D01*
X274800D01*
Y271600D01*
D02*
G37*
G36*
X274000Y270800D02*
X273200D01*
Y270000D01*
X274000D01*
Y270800D01*
D02*
G37*
G36*
X274800Y278800D02*
X274000D01*
Y278000D01*
X273200D01*
Y277200D01*
Y276400D01*
X272400D01*
Y275600D01*
Y274800D01*
X271600D01*
Y274000D01*
Y273200D01*
Y272400D01*
X270800D01*
Y271600D01*
Y270800D01*
Y270000D01*
Y269200D01*
X273200D01*
Y270000D01*
X271600D01*
Y270800D01*
Y271600D01*
X272400D01*
Y272400D01*
Y273200D01*
Y274000D01*
X273200D01*
Y274800D01*
Y275600D01*
X274000D01*
Y276400D01*
Y277200D01*
X274800D01*
Y278000D01*
Y278800D01*
D02*
G37*
%LPD*%
G36*
X349200Y307600D02*
Y306800D01*
X348400D01*
Y307600D01*
Y308400D01*
X349200D01*
Y307600D01*
D02*
G37*
G36*
X393200Y302000D02*
Y301200D01*
X392400D01*
Y302000D01*
Y302800D01*
X393200D01*
Y302000D01*
D02*
G37*
G36*
X350000D02*
Y301200D01*
Y300400D01*
X349200D01*
Y301200D01*
Y302000D01*
Y302800D01*
X350000D01*
Y302000D01*
D02*
G37*
G36*
X310000Y299600D02*
Y298800D01*
Y298000D01*
X309200D01*
Y298800D01*
Y299600D01*
Y300400D01*
X310000D01*
Y299600D01*
D02*
G37*
G36*
X361200Y298800D02*
Y298000D01*
Y297200D01*
X360400D01*
Y298000D01*
Y298800D01*
Y299600D01*
X361200D01*
Y298800D01*
D02*
G37*
G36*
X402000D02*
Y298000D01*
Y297200D01*
X402800D01*
Y296400D01*
Y295600D01*
X402000D01*
Y296400D01*
X401200D01*
Y297200D01*
Y298000D01*
Y298800D01*
Y299600D01*
X402000D01*
Y298800D01*
D02*
G37*
G36*
X298000Y296400D02*
Y295600D01*
X297200D01*
Y296400D01*
Y297200D01*
X298000D01*
Y296400D01*
D02*
G37*
G36*
X414000Y295600D02*
Y294800D01*
X413200D01*
Y295600D01*
Y296400D01*
X414000D01*
Y295600D01*
D02*
G37*
G36*
X391600Y298800D02*
Y298000D01*
Y297200D01*
Y296400D01*
Y295600D01*
Y294800D01*
X390800D01*
Y295600D01*
Y296400D01*
Y297200D01*
Y298000D01*
Y298800D01*
Y299600D01*
X391600D01*
Y298800D01*
D02*
G37*
G36*
X363600Y300400D02*
Y299600D01*
Y298800D01*
Y298000D01*
Y297200D01*
Y296400D01*
Y295600D01*
Y294800D01*
X373200D01*
Y295600D01*
Y296400D01*
X374000D01*
Y297200D01*
Y298000D01*
X374800D01*
Y297200D01*
Y296400D01*
Y295600D01*
X374000D01*
Y294800D01*
Y294000D01*
Y293200D01*
X362000D01*
Y294000D01*
Y294800D01*
Y295600D01*
Y296400D01*
X362800D01*
Y297200D01*
Y298000D01*
Y298800D01*
Y299600D01*
Y300400D01*
Y301200D01*
X363600D01*
Y300400D01*
D02*
G37*
G36*
X350800Y298000D02*
Y297200D01*
Y296400D01*
X351600D01*
Y295600D01*
Y294800D01*
X354000D01*
Y294000D01*
X355600D01*
Y294800D01*
X358800D01*
Y295600D01*
X359600D01*
Y296400D01*
Y297200D01*
X360400D01*
Y296400D01*
Y295600D01*
Y294800D01*
Y294000D01*
X359600D01*
Y293200D01*
X350800D01*
Y294000D01*
Y294800D01*
Y295600D01*
Y296400D01*
X350000D01*
Y297200D01*
Y298000D01*
Y298800D01*
X350800D01*
Y298000D01*
D02*
G37*
G36*
X320400Y302000D02*
Y301200D01*
Y300400D01*
Y299600D01*
Y298800D01*
Y298000D01*
Y297200D01*
Y296400D01*
Y295600D01*
Y294800D01*
X321200D01*
Y294000D01*
Y293200D01*
Y292400D01*
X322000D01*
Y293200D01*
X324400D01*
Y294000D01*
X332400D01*
Y294800D01*
X333200D01*
Y295600D01*
Y296400D01*
Y297200D01*
Y298000D01*
X334000D01*
Y298800D01*
Y299600D01*
Y300400D01*
Y301200D01*
Y302000D01*
X335600D01*
Y301200D01*
Y300400D01*
Y299600D01*
X336400D01*
Y298800D01*
Y298000D01*
X337200D01*
Y297200D01*
Y296400D01*
Y295600D01*
X338000D01*
Y294800D01*
X347600D01*
Y295600D01*
Y296400D01*
Y297200D01*
Y298000D01*
X348400D01*
Y297200D01*
Y296400D01*
Y295600D01*
X349200D01*
Y294800D01*
Y294000D01*
Y293200D01*
X337200D01*
Y294000D01*
X336400D01*
Y294800D01*
Y295600D01*
Y296400D01*
Y297200D01*
X335600D01*
Y298000D01*
Y298800D01*
Y299600D01*
X334800D01*
Y298800D01*
Y298000D01*
Y297200D01*
Y296400D01*
X334000D01*
Y295600D01*
Y294800D01*
Y294000D01*
Y293200D01*
X329200D01*
Y292400D01*
X324400D01*
Y291600D01*
X322000D01*
Y290800D01*
X320400D01*
Y291600D01*
Y292400D01*
Y293200D01*
X319600D01*
Y294000D01*
Y294800D01*
Y295600D01*
Y296400D01*
Y297200D01*
Y298000D01*
Y298800D01*
Y299600D01*
Y300400D01*
Y301200D01*
Y302000D01*
Y302800D01*
X320400D01*
Y302000D01*
D02*
G37*
G36*
X297200Y294000D02*
Y293200D01*
Y292400D01*
Y291600D01*
X296400D01*
Y292400D01*
Y293200D01*
Y294000D01*
Y294800D01*
X297200D01*
Y294000D01*
D02*
G37*
G36*
X377200Y298800D02*
Y298000D01*
Y297200D01*
Y296400D01*
X378000D01*
Y295600D01*
Y294800D01*
X378800D01*
Y294000D01*
X386000D01*
Y293200D01*
X388400D01*
Y292400D01*
X390000D01*
Y293200D01*
Y294000D01*
Y294800D01*
X390800D01*
Y294000D01*
Y293200D01*
Y292400D01*
Y291600D01*
Y290800D01*
X388400D01*
Y291600D01*
X386800D01*
Y292400D01*
X381200D01*
Y293200D01*
X377200D01*
Y294000D01*
X376400D01*
Y294800D01*
Y295600D01*
Y296400D01*
Y297200D01*
Y298000D01*
Y298800D01*
Y299600D01*
X377200D01*
Y298800D01*
D02*
G37*
G36*
X318000Y299600D02*
Y298800D01*
Y298000D01*
Y297200D01*
Y296400D01*
Y295600D01*
Y294800D01*
Y294000D01*
Y293200D01*
X318800D01*
Y292400D01*
Y291600D01*
Y290800D01*
X317200D01*
Y290000D01*
X312400D01*
Y289200D01*
X310800D01*
Y290000D01*
Y290800D01*
Y291600D01*
X310000D01*
Y292400D01*
Y293200D01*
X310800D01*
Y292400D01*
Y291600D01*
X311600D01*
Y290800D01*
X313200D01*
Y291600D01*
X317200D01*
Y292400D01*
Y293200D01*
Y294000D01*
X316400D01*
Y294800D01*
Y295600D01*
X317200D01*
Y296400D01*
Y297200D01*
Y298000D01*
Y298800D01*
Y299600D01*
Y300400D01*
X318000D01*
Y299600D01*
D02*
G37*
G36*
X394000D02*
Y298800D01*
Y298000D01*
Y297200D01*
Y296400D01*
Y295600D01*
Y294800D01*
Y294000D01*
Y293200D01*
Y292400D01*
Y291600D01*
X396400D01*
Y290800D01*
X399600D01*
Y291600D01*
Y292400D01*
X400400D01*
Y293200D01*
Y294000D01*
Y294800D01*
X401200D01*
Y294000D01*
Y293200D01*
Y292400D01*
Y291600D01*
X400400D01*
Y290800D01*
Y290000D01*
Y289200D01*
X398000D01*
Y290000D01*
X393200D01*
Y290800D01*
X391600D01*
Y291600D01*
X392400D01*
Y292400D01*
Y293200D01*
Y294000D01*
X393200D01*
Y294800D01*
Y295600D01*
Y296400D01*
Y297200D01*
Y298000D01*
Y298800D01*
Y299600D01*
Y300400D01*
X394000D01*
Y299600D01*
D02*
G37*
G36*
X389200Y320400D02*
X390800D01*
Y319600D01*
X392400D01*
Y318800D01*
X394000D01*
Y318000D01*
X395600D01*
Y317200D01*
X397200D01*
Y316400D01*
X398000D01*
Y315600D01*
X398800D01*
Y314800D01*
X399600D01*
Y314000D01*
X400400D01*
Y313200D01*
X401200D01*
Y312400D01*
X402000D01*
Y311600D01*
X402800D01*
Y310800D01*
Y310000D01*
X403600D01*
Y309200D01*
X404400D01*
Y308400D01*
Y307600D01*
X405200D01*
Y306800D01*
Y306000D01*
X406000D01*
Y305200D01*
Y304400D01*
X406800D01*
Y303600D01*
Y302800D01*
Y302000D01*
X407600D01*
Y301200D01*
Y300400D01*
Y299600D01*
Y298800D01*
X408400D01*
Y298000D01*
Y297200D01*
Y296400D01*
Y295600D01*
Y294800D01*
Y294000D01*
Y293200D01*
Y292400D01*
X409200D01*
Y291600D01*
Y290800D01*
Y290000D01*
Y289200D01*
Y288400D01*
Y287600D01*
Y286800D01*
X408400D01*
Y286000D01*
X406800D01*
Y286800D01*
X406000D01*
Y287600D01*
X404400D01*
Y288400D01*
X402800D01*
Y289200D01*
X402000D01*
Y290000D01*
Y290800D01*
X402800D01*
Y291600D01*
Y292400D01*
Y293200D01*
Y294000D01*
Y294800D01*
X403600D01*
Y294000D01*
Y293200D01*
Y292400D01*
Y291600D01*
Y290800D01*
Y290000D01*
Y289200D01*
X406000D01*
Y288400D01*
X407600D01*
Y289200D01*
Y290000D01*
Y290800D01*
Y291600D01*
Y292400D01*
Y293200D01*
Y294000D01*
Y294800D01*
X406800D01*
Y295600D01*
Y296400D01*
Y297200D01*
Y298000D01*
Y298800D01*
Y299600D01*
X406000D01*
Y300400D01*
Y301200D01*
Y302000D01*
X405200D01*
Y302800D01*
Y303600D01*
Y304400D01*
X404400D01*
Y305200D01*
Y306000D01*
X403600D01*
Y306800D01*
Y307600D01*
X402800D01*
Y308400D01*
X402000D01*
Y309200D01*
Y310000D01*
X401200D01*
Y310800D01*
X400400D01*
Y311600D01*
Y312400D01*
X399600D01*
Y313200D01*
X398800D01*
Y314000D01*
X398000D01*
Y314800D01*
X396400D01*
Y315600D01*
X395600D01*
Y316400D01*
X394800D01*
Y317200D01*
X393200D01*
Y318000D01*
X392400D01*
Y318800D01*
X390800D01*
Y319600D01*
X389200D01*
Y320400D01*
X387600D01*
Y321200D01*
X389200D01*
Y320400D01*
D02*
G37*
G36*
X385200Y290800D02*
X386800D01*
Y290000D01*
X388400D01*
Y289200D01*
X389200D01*
Y288400D01*
X387600D01*
Y289200D01*
X386000D01*
Y290000D01*
X382800D01*
Y290800D01*
X382000D01*
Y290000D01*
X379600D01*
Y290800D01*
X381200D01*
Y291600D01*
X385200D01*
Y290800D01*
D02*
G37*
G36*
X330800D02*
X332400D01*
Y290000D01*
X333200D01*
Y289200D01*
X332400D01*
Y288400D01*
X330800D01*
Y289200D01*
X331600D01*
Y290000D01*
X326000D01*
Y289200D01*
X323600D01*
Y290000D01*
X325200D01*
Y290800D01*
X326800D01*
Y291600D01*
X330800D01*
Y290800D01*
D02*
G37*
G36*
X308400Y294800D02*
Y294000D01*
Y293200D01*
Y292400D01*
Y291600D01*
Y290800D01*
Y290000D01*
Y289200D01*
Y288400D01*
X305200D01*
Y289200D01*
X306800D01*
Y290000D01*
X307600D01*
Y290800D01*
Y291600D01*
Y292400D01*
Y293200D01*
Y294000D01*
Y294800D01*
Y295600D01*
X308400D01*
Y294800D01*
D02*
G37*
G36*
X322000Y319600D02*
X320400D01*
Y318800D01*
X318800D01*
Y318000D01*
X317200D01*
Y317200D01*
X316400D01*
Y316400D01*
X315600D01*
Y315600D01*
X314000D01*
Y314800D01*
X313200D01*
Y314000D01*
X312400D01*
Y313200D01*
X311600D01*
Y312400D01*
X310800D01*
Y311600D01*
X310000D01*
Y310800D01*
Y310000D01*
X309200D01*
Y309200D01*
X308400D01*
Y308400D01*
Y307600D01*
X307600D01*
Y306800D01*
X306800D01*
Y306000D01*
Y305200D01*
Y304400D01*
X306000D01*
Y303600D01*
Y302800D01*
X305200D01*
Y302000D01*
Y301200D01*
Y300400D01*
X304400D01*
Y299600D01*
Y298800D01*
Y298000D01*
Y297200D01*
X303600D01*
Y296400D01*
Y295600D01*
Y294800D01*
Y294000D01*
Y293200D01*
Y292400D01*
Y291600D01*
Y290800D01*
Y290000D01*
Y289200D01*
Y288400D01*
Y287600D01*
X304400D01*
Y286800D01*
Y286000D01*
X303600D01*
Y286800D01*
Y287600D01*
X302800D01*
Y286800D01*
X302000D01*
Y287600D01*
Y288400D01*
Y289200D01*
Y290000D01*
Y290800D01*
Y291600D01*
Y292400D01*
Y293200D01*
Y294000D01*
Y294800D01*
Y295600D01*
X302800D01*
Y296400D01*
Y297200D01*
Y298000D01*
Y298800D01*
Y299600D01*
Y300400D01*
X303600D01*
Y301200D01*
Y302000D01*
Y302800D01*
X304400D01*
Y303600D01*
Y304400D01*
X305200D01*
Y305200D01*
Y306000D01*
Y306800D01*
X306000D01*
Y307600D01*
Y308400D01*
X306800D01*
Y309200D01*
X307600D01*
Y310000D01*
Y310800D01*
X308400D01*
Y311600D01*
X309200D01*
Y312400D01*
X310000D01*
Y313200D01*
Y314000D01*
X310800D01*
Y314800D01*
X311600D01*
Y315600D01*
X313200D01*
Y316400D01*
X314000D01*
Y317200D01*
X314800D01*
Y318000D01*
X316400D01*
Y318800D01*
X318000D01*
Y319600D01*
X319600D01*
Y320400D01*
X322000D01*
Y319600D01*
D02*
G37*
G36*
X303600Y283600D02*
Y282800D01*
X302800D01*
Y283600D01*
Y284400D01*
X303600D01*
Y283600D01*
D02*
G37*
G36*
X302800Y280400D02*
Y279600D01*
X302000D01*
Y280400D01*
Y281200D01*
X302800D01*
Y280400D01*
D02*
G37*
G36*
X302000Y277200D02*
Y276400D01*
X301200D01*
Y277200D01*
Y278000D01*
X302000D01*
Y277200D01*
D02*
G37*
G36*
X380400Y273200D02*
X381200D01*
Y272400D01*
X380400D01*
Y273200D01*
X379600D01*
Y274000D01*
X380400D01*
Y273200D01*
D02*
G37*
G36*
X333200Y277200D02*
X337200D01*
Y276400D01*
X340400D01*
Y275600D01*
X341200D01*
Y274800D01*
X342000D01*
Y274000D01*
X341200D01*
Y273200D01*
X342000D01*
Y272400D01*
Y271600D01*
X341200D01*
Y272400D01*
X340400D01*
Y273200D01*
Y274000D01*
X339600D01*
Y274800D01*
X338000D01*
Y275600D01*
X334000D01*
Y276400D01*
X333200D01*
Y275600D01*
X331600D01*
Y276400D01*
X326800D01*
Y277200D01*
X322800D01*
Y276400D01*
X318000D01*
Y275600D01*
X315600D01*
Y274800D01*
X313200D01*
Y274000D01*
X311600D01*
Y273200D01*
X310000D01*
Y272400D01*
X309200D01*
Y271600D01*
X308400D01*
Y270800D01*
X307600D01*
Y270000D01*
X306800D01*
Y269200D01*
Y268400D01*
X306000D01*
Y267600D01*
Y266800D01*
Y266000D01*
Y265200D01*
Y264400D01*
Y263600D01*
Y262800D01*
Y262000D01*
Y261200D01*
Y260400D01*
Y259600D01*
Y258800D01*
Y258000D01*
X306800D01*
Y257200D01*
X307600D01*
Y256400D01*
X310000D01*
Y257200D01*
X311600D01*
Y256400D01*
X310800D01*
Y255600D01*
X309200D01*
Y254800D01*
X308400D01*
Y254000D01*
X307600D01*
Y253200D01*
X306800D01*
Y254000D01*
Y254800D01*
Y255600D01*
X304400D01*
Y256400D01*
X305200D01*
Y257200D01*
X304400D01*
Y258000D01*
Y258800D01*
Y259600D01*
Y260400D01*
Y261200D01*
Y262000D01*
Y262800D01*
Y263600D01*
Y264400D01*
Y265200D01*
Y266000D01*
Y266800D01*
Y267600D01*
X305200D01*
Y268400D01*
X302800D01*
Y269200D01*
X305200D01*
Y270000D01*
X306000D01*
Y270800D01*
Y271600D01*
X306800D01*
Y272400D01*
X305200D01*
Y273200D01*
X308400D01*
Y274000D01*
X309200D01*
Y274800D01*
X310800D01*
Y275600D01*
X313200D01*
Y276400D01*
X315600D01*
Y277200D01*
X318000D01*
Y278000D01*
X333200D01*
Y277200D01*
D02*
G37*
G36*
X336400Y270800D02*
Y270000D01*
Y269200D01*
Y268400D01*
Y267600D01*
Y266800D01*
Y266000D01*
Y265200D01*
Y264400D01*
Y263600D01*
X335600D01*
Y264400D01*
Y265200D01*
Y266000D01*
Y266800D01*
Y267600D01*
Y268400D01*
Y269200D01*
Y270000D01*
Y270800D01*
Y271600D01*
X336400D01*
Y270800D01*
D02*
G37*
G36*
X282800Y266800D02*
Y266000D01*
Y265200D01*
Y264400D01*
Y263600D01*
X282000D01*
Y264400D01*
Y265200D01*
Y266000D01*
Y266800D01*
Y267600D01*
X282800D01*
Y266800D01*
D02*
G37*
G36*
X382000Y263600D02*
Y262800D01*
X381200D01*
Y263600D01*
Y264400D01*
X382000D01*
Y263600D01*
D02*
G37*
G36*
X375600Y268400D02*
Y267600D01*
Y266800D01*
Y266000D01*
Y265200D01*
Y264400D01*
Y263600D01*
Y262800D01*
X374800D01*
Y263600D01*
Y264400D01*
Y265200D01*
Y266000D01*
X374000D01*
Y266800D01*
Y267600D01*
Y268400D01*
X374800D01*
Y269200D01*
X375600D01*
Y268400D01*
D02*
G37*
G36*
X282800Y258800D02*
Y258000D01*
X282000D01*
Y258800D01*
Y259600D01*
X282800D01*
Y258800D01*
D02*
G37*
G36*
X390000Y277200D02*
X394000D01*
Y276400D01*
X396400D01*
Y275600D01*
X398800D01*
Y274800D01*
X400400D01*
Y274000D01*
X402000D01*
Y273200D01*
X404400D01*
Y272400D01*
X405200D01*
Y271600D01*
X404400D01*
Y270800D01*
X405200D01*
Y270000D01*
Y269200D01*
X406800D01*
Y268400D01*
X407600D01*
Y267600D01*
X406000D01*
Y266800D01*
Y266000D01*
Y265200D01*
X406800D01*
Y264400D01*
Y263600D01*
Y262800D01*
Y262000D01*
Y261200D01*
Y260400D01*
Y259600D01*
Y258800D01*
Y258000D01*
X406000D01*
Y257200D01*
Y256400D01*
Y255600D01*
X406800D01*
Y254800D01*
X406000D01*
Y255600D01*
X404400D01*
Y254800D01*
X403600D01*
Y254000D01*
Y253200D01*
X402800D01*
Y254000D01*
X402000D01*
Y254800D01*
X401200D01*
Y255600D01*
X399600D01*
Y256400D01*
X398000D01*
Y257200D01*
X396400D01*
Y258000D01*
X398800D01*
Y257200D01*
X400400D01*
Y256400D01*
X402000D01*
Y255600D01*
X402800D01*
Y256400D01*
X404400D01*
Y257200D01*
X405200D01*
Y258000D01*
Y258800D01*
Y259600D01*
Y260400D01*
Y261200D01*
Y262000D01*
Y262800D01*
Y263600D01*
Y264400D01*
Y265200D01*
Y266000D01*
Y266800D01*
X404400D01*
Y267600D01*
Y268400D01*
Y269200D01*
X403600D01*
Y270000D01*
X402800D01*
Y270800D01*
Y271600D01*
X401200D01*
Y272400D01*
X400400D01*
Y273200D01*
X398800D01*
Y274000D01*
X396400D01*
Y274800D01*
X394000D01*
Y275600D01*
X390800D01*
Y276400D01*
X378800D01*
Y275600D01*
X374800D01*
Y274800D01*
X371600D01*
Y274000D01*
X370800D01*
Y273200D01*
Y272400D01*
X370000D01*
Y271600D01*
Y270800D01*
X368400D01*
Y271600D01*
X369200D01*
Y272400D01*
Y273200D01*
Y274000D01*
Y274800D01*
X370000D01*
Y275600D01*
X372400D01*
Y276400D01*
X375600D01*
Y277200D01*
X381200D01*
Y278000D01*
X390000D01*
Y277200D01*
D02*
G37*
G36*
X283600Y255600D02*
Y254800D01*
X282800D01*
Y255600D01*
Y256400D01*
X283600D01*
Y255600D01*
D02*
G37*
G36*
X284400Y253200D02*
Y252400D01*
X283600D01*
Y253200D01*
Y254000D01*
X284400D01*
Y253200D01*
D02*
G37*
G36*
X286000Y249200D02*
Y248400D01*
X286800D01*
Y247600D01*
X286000D01*
Y248400D01*
X285200D01*
Y249200D01*
Y250000D01*
X286000D01*
Y249200D01*
D02*
G37*
G36*
X389200Y244400D02*
X390800D01*
Y243600D01*
X392400D01*
Y242800D01*
X393200D01*
Y242000D01*
X394000D01*
Y241200D01*
X394800D01*
Y240400D01*
X395600D01*
Y239600D01*
Y238800D01*
X396400D01*
Y238000D01*
Y237200D01*
Y236400D01*
Y235600D01*
X397200D01*
Y234800D01*
Y234000D01*
Y233200D01*
Y232400D01*
Y231600D01*
Y230800D01*
X396400D01*
Y230000D01*
Y229200D01*
Y228400D01*
Y227600D01*
X395600D01*
Y226800D01*
Y226000D01*
X394800D01*
Y225200D01*
X394000D01*
Y224400D01*
X393200D01*
Y223600D01*
X392400D01*
Y222800D01*
X391600D01*
Y222000D01*
X390800D01*
Y221200D01*
X389200D01*
Y220400D01*
X388400D01*
Y219600D01*
X386800D01*
Y218800D01*
X384400D01*
Y218000D01*
X382000D01*
Y217200D01*
X379600D01*
Y216400D01*
X375600D01*
Y215600D01*
X371600D01*
Y214800D01*
X364400D01*
Y214000D01*
X347600D01*
Y214800D01*
X339600D01*
Y215600D01*
X335600D01*
Y216400D01*
X332400D01*
Y217200D01*
X329200D01*
Y218000D01*
X326800D01*
Y218800D01*
X324400D01*
Y219600D01*
X322800D01*
Y220400D01*
X322000D01*
Y221200D01*
X320400D01*
Y222000D01*
X319600D01*
Y222800D01*
X318800D01*
Y223600D01*
X318000D01*
Y224400D01*
X317200D01*
Y225200D01*
X316400D01*
Y226000D01*
Y226800D01*
X315600D01*
Y227600D01*
Y228400D01*
X314800D01*
Y229200D01*
Y230000D01*
Y230800D01*
Y231600D01*
X314000D01*
Y232400D01*
Y233200D01*
Y234000D01*
Y234800D01*
X314800D01*
Y235600D01*
Y236400D01*
Y237200D01*
Y238000D01*
X315600D01*
Y238800D01*
Y239600D01*
X316400D01*
Y240400D01*
Y241200D01*
X317200D01*
Y242000D01*
X318000D01*
Y242800D01*
X318800D01*
Y243600D01*
X320400D01*
Y244400D01*
X322000D01*
Y245200D01*
X326800D01*
Y244400D01*
X329200D01*
Y243600D01*
X330800D01*
Y242800D01*
X333200D01*
Y242000D01*
X335600D01*
Y241200D01*
X338800D01*
Y240400D01*
X342000D01*
Y239600D01*
X346800D01*
Y238800D01*
X365200D01*
Y239600D01*
X369200D01*
Y240400D01*
X372400D01*
Y241200D01*
X375600D01*
Y242000D01*
X378800D01*
Y242800D01*
X380400D01*
Y243600D01*
X382000D01*
Y244400D01*
X384400D01*
Y245200D01*
X389200D01*
Y244400D01*
D02*
G37*
G36*
X419600Y229200D02*
Y228400D01*
Y227600D01*
Y226800D01*
Y226000D01*
Y225200D01*
Y224400D01*
X418800D01*
Y225200D01*
Y226000D01*
Y226800D01*
Y227600D01*
Y228400D01*
Y229200D01*
Y230000D01*
X419600D01*
Y229200D01*
D02*
G37*
G36*
X292400Y227600D02*
Y226800D01*
Y226000D01*
Y225200D01*
Y224400D01*
Y223600D01*
X291600D01*
Y224400D01*
Y225200D01*
Y226000D01*
Y226800D01*
Y227600D01*
Y228400D01*
X292400D01*
Y227600D01*
D02*
G37*
G36*
X418800Y222000D02*
Y221200D01*
Y220400D01*
X418000D01*
Y221200D01*
Y222000D01*
Y222800D01*
X418800D01*
Y222000D01*
D02*
G37*
G36*
X293200Y221200D02*
Y220400D01*
Y219600D01*
X292400D01*
Y220400D01*
Y221200D01*
Y222000D01*
X293200D01*
Y221200D01*
D02*
G37*
G36*
X414800Y219600D02*
Y218800D01*
X414000D01*
Y219600D01*
Y220400D01*
X414800D01*
Y219600D01*
D02*
G37*
G36*
X297200D02*
Y218800D01*
Y218000D01*
Y217200D01*
X296400D01*
Y218000D01*
Y218800D01*
Y219600D01*
Y220400D01*
X297200D01*
Y219600D01*
D02*
G37*
G36*
X415600Y212400D02*
Y211600D01*
X414800D01*
Y212400D01*
Y213200D01*
X415600D01*
Y212400D01*
D02*
G37*
%LPC*%
G36*
X389200Y243600D02*
X384400D01*
Y242800D01*
X382000D01*
Y242000D01*
X380400D01*
Y241200D01*
X378000D01*
Y240400D01*
X375600D01*
Y239600D01*
X371600D01*
Y238800D01*
X368400D01*
Y238000D01*
X363600D01*
Y237200D01*
X347600D01*
Y238000D01*
X343600D01*
Y238800D01*
X339600D01*
Y239600D01*
X336400D01*
Y240400D01*
X333200D01*
Y241200D01*
X330800D01*
Y242000D01*
X329200D01*
Y242800D01*
X326800D01*
Y243600D01*
X322000D01*
Y242800D01*
X320400D01*
Y242000D01*
X321200D01*
Y241200D01*
X322000D01*
Y240400D01*
X322800D01*
Y239600D01*
X323600D01*
Y238800D01*
X325200D01*
Y238000D01*
X326800D01*
Y237200D01*
X327600D01*
Y236400D01*
X328400D01*
Y235600D01*
X329200D01*
Y234800D01*
Y234000D01*
X330000D01*
Y233200D01*
X330800D01*
Y232400D01*
X332400D01*
Y233200D01*
X334000D01*
Y234000D01*
X334800D01*
Y233200D01*
X338000D01*
Y232400D01*
X341200D01*
Y231600D01*
X345200D01*
Y230800D01*
X350800D01*
Y230000D01*
X360400D01*
Y230800D01*
X366000D01*
Y231600D01*
X370000D01*
Y232400D01*
X373200D01*
Y233200D01*
X375600D01*
Y234000D01*
X377200D01*
Y233200D01*
X378800D01*
Y232400D01*
X380400D01*
Y233200D01*
X381200D01*
Y234000D01*
X382000D01*
Y234800D01*
Y235600D01*
X382800D01*
Y236400D01*
Y237200D01*
X384400D01*
Y238000D01*
X386000D01*
Y238800D01*
X387600D01*
Y239600D01*
X388400D01*
Y240400D01*
X389200D01*
Y241200D01*
X390000D01*
Y242000D01*
X390800D01*
Y242800D01*
X389200D01*
Y243600D01*
D02*
G37*
G36*
X326000Y227600D02*
X325200D01*
Y226800D01*
X322800D01*
Y226000D01*
X321200D01*
Y225200D01*
X320400D01*
Y224400D01*
X321200D01*
Y223600D01*
Y222800D01*
X322000D01*
Y222000D01*
X323600D01*
Y221200D01*
X324400D01*
Y220400D01*
X326800D01*
Y219600D01*
X328400D01*
Y218800D01*
X331600D01*
Y218000D01*
X334800D01*
Y217200D01*
X338800D01*
Y216400D01*
X345200D01*
Y215600D01*
X366800D01*
Y216400D01*
X372400D01*
Y217200D01*
X376400D01*
Y218000D01*
X379600D01*
Y218800D01*
X382800D01*
Y219600D01*
X385200D01*
Y220400D01*
X386800D01*
Y221200D01*
X388400D01*
Y222000D01*
X389200D01*
Y222800D01*
X390000D01*
Y223600D01*
Y224400D01*
Y225200D01*
Y226000D01*
X388400D01*
Y226800D01*
X384400D01*
Y226000D01*
X383600D01*
Y225200D01*
X385200D01*
Y224400D01*
X383600D01*
Y223600D01*
X381200D01*
Y224400D01*
X379600D01*
Y225200D01*
X377200D01*
Y224400D01*
Y223600D01*
X376400D01*
Y222800D01*
Y222000D01*
X372400D01*
Y221200D01*
X367600D01*
Y220400D01*
X362000D01*
Y219600D01*
X349200D01*
Y220400D01*
X342800D01*
Y221200D01*
X338800D01*
Y222000D01*
X334800D01*
Y222800D01*
Y223600D01*
X334000D01*
Y224400D01*
X333200D01*
Y225200D01*
X331600D01*
Y224400D01*
X330000D01*
Y223600D01*
X327600D01*
Y224400D01*
X326000D01*
Y225200D01*
X326800D01*
Y226000D01*
X326000D01*
Y226800D01*
Y227600D01*
D02*
G37*
%LPD*%
G36*
X289200Y323600D02*
Y322800D01*
Y322000D01*
X288400D01*
Y321200D01*
Y320400D01*
X287600D01*
Y319600D01*
X286800D01*
Y320400D01*
Y321200D01*
X287600D01*
Y322000D01*
Y322800D01*
X288400D01*
Y323600D01*
Y324400D01*
X289200D01*
Y323600D01*
D02*
G37*
G36*
X291600Y318000D02*
Y317200D01*
X290800D01*
Y318000D01*
Y318800D01*
X291600D01*
Y318000D01*
D02*
G37*
G36*
X290800Y316400D02*
Y315600D01*
X290000D01*
Y316400D01*
Y317200D01*
X290800D01*
Y316400D01*
D02*
G37*
G36*
X290000Y314800D02*
Y314000D01*
X289200D01*
Y314800D01*
Y315600D01*
X290000D01*
Y314800D01*
D02*
G37*
G36*
X289200Y313200D02*
Y312400D01*
X288400D01*
Y313200D01*
Y314000D01*
X289200D01*
Y313200D01*
D02*
G37*
G36*
X288400Y311600D02*
Y310800D01*
X287600D01*
Y311600D01*
Y312400D01*
X288400D01*
Y311600D01*
D02*
G37*
G36*
X287600Y309200D02*
Y308400D01*
X286800D01*
Y309200D01*
Y310000D01*
X287600D01*
Y309200D01*
D02*
G37*
G36*
X285200Y304400D02*
Y303600D01*
X284400D01*
Y304400D01*
Y305200D01*
X285200D01*
Y304400D01*
D02*
G37*
G36*
X284400Y302800D02*
Y302000D01*
X283600D01*
Y302800D01*
Y303600D01*
X284400D01*
Y302800D01*
D02*
G37*
G36*
X286000Y295600D02*
Y294800D01*
X285200D01*
Y295600D01*
Y296400D01*
X286000D01*
Y295600D01*
D02*
G37*
G36*
X430800Y297200D02*
Y296400D01*
X430000D01*
Y297200D01*
Y298000D01*
X430800D01*
Y297200D01*
D02*
G37*
D13*
X180604Y337496D02*
X192100D01*
X180604Y319504D02*
X192100D01*
Y337496D01*
X180604Y319504D02*
Y337496D01*
X237256Y206504D02*
Y224496D01*
X221744Y206504D02*
Y224496D01*
X237256D01*
X221744Y206504D02*
X237256D01*
X177370Y289102D02*
Y295992D01*
X173630Y289102D02*
Y295992D01*
X177370D01*
X173630Y289102D02*
X177370D01*
X156996Y297468D02*
X169004D01*
X156996Y290579D02*
X169004D01*
Y297468D01*
X156996Y290579D02*
Y297468D01*
X164453Y232594D02*
X191028D01*
X164453Y208106D02*
X191028D01*
Y232594D01*
X164453Y208106D02*
Y232594D01*
X389730Y304252D02*
Y315748D01*
X407722Y304252D02*
Y315748D01*
X389730D02*
X407722D01*
X389730Y304252D02*
X407722D01*
X472256Y205927D02*
Y223919D01*
X456744Y205927D02*
Y223919D01*
X472256D01*
X456744Y205927D02*
X472256D01*
X415130Y319150D02*
Y337142D01*
X426626Y319150D02*
Y337142D01*
X415130Y319150D02*
X426626D01*
X415130Y337142D02*
X426626D01*
X272730Y305252D02*
Y316748D01*
X290722Y305252D02*
Y316748D01*
X272730D02*
X290722D01*
X272730Y305252D02*
X290722D01*
X339244Y205960D02*
X354756D01*
X339244Y223952D02*
X354756D01*
X339244Y205960D02*
Y223952D01*
X354756Y205960D02*
Y223952D01*
X299204Y337402D02*
X310700D01*
X299204Y319410D02*
X310700D01*
Y337402D01*
X299204Y319410D02*
Y337402D01*
X157504Y305252D02*
Y316748D01*
X175496Y305252D02*
Y316748D01*
X157504D02*
X175496D01*
X157504Y305252D02*
X175496D01*
X367211Y233095D02*
X393786D01*
X367211Y208606D02*
X393786D01*
Y233095D01*
X367211Y208606D02*
Y233095D01*
X249897Y232695D02*
X276472D01*
X249897Y208206D02*
X276472D01*
Y232695D01*
X249897Y208206D02*
Y232695D01*
X129728Y232594D02*
X156303D01*
X129728Y208106D02*
X156303D01*
Y232594D01*
X129728Y208106D02*
Y232594D01*
X394055Y280130D02*
X400945D01*
X394055Y283870D02*
X400945D01*
Y280130D02*
Y283870D01*
X394055Y280130D02*
Y283870D01*
X290630Y289555D02*
X294370D01*
X290630Y296445D02*
X294370D01*
X290630Y289555D02*
Y296445D01*
X294370Y289555D02*
Y296445D01*
X402423Y287396D02*
Y299404D01*
X395533Y287396D02*
Y299404D01*
Y287396D02*
X402423D01*
X395533Y299404D02*
X402423D01*
X275256Y291029D02*
Y297919D01*
X287264Y291029D02*
Y297919D01*
X275256Y291029D02*
X287264D01*
X275256Y297919D02*
X287264D01*
X400727Y233095D02*
X427302D01*
X400727Y208606D02*
X427302D01*
Y233095D01*
X400727Y208606D02*
Y233095D01*
X283413Y232639D02*
X309987D01*
X283413Y208151D02*
X309987D01*
Y232639D01*
X283413Y208151D02*
Y232639D01*
X179462Y340508D02*
X193242D01*
X179462Y316492D02*
X193242D01*
Y340508D01*
X179462Y316492D02*
Y340508D01*
X186352Y326532D02*
Y330469D01*
X184383Y328500D02*
X188321D01*
X227532Y215500D02*
X231469D01*
X229500Y213531D02*
Y217469D01*
X238358Y203492D02*
Y227508D01*
X220642Y203492D02*
Y227508D01*
X238358D01*
X220642Y203492D02*
X238358D01*
X173630Y292547D02*
X177370D01*
X175500Y290677D02*
Y294417D01*
X163000Y292055D02*
Y295992D01*
X161031Y294024D02*
X164969D01*
X163370Y245488D02*
X192110D01*
X163370Y199622D02*
X192110D01*
Y245488D01*
X163370Y199622D02*
Y245488D01*
X177740Y220587D02*
Y224524D01*
X175772Y222555D02*
X179709D01*
X386718Y303110D02*
Y316890D01*
X410734Y303110D02*
Y316890D01*
X386718D02*
X410734D01*
X386718Y303110D02*
X410734D01*
X396758Y310000D02*
X400695D01*
X398726Y308032D02*
Y311968D01*
X462532Y214923D02*
X466468D01*
X464500Y212954D02*
Y216891D01*
X473358Y202915D02*
Y226931D01*
X455642Y202915D02*
Y226931D01*
X473358D01*
X455642Y202915D02*
X473358D01*
X418910Y328146D02*
X422847D01*
X420878Y326177D02*
Y330114D01*
X413988Y316138D02*
Y340154D01*
X427768Y316138D02*
Y340154D01*
X413988Y316138D02*
X427768D01*
X413988Y340154D02*
X427768D01*
X269718Y304110D02*
Y317890D01*
X293734Y304110D02*
Y317890D01*
X269718D02*
X293734D01*
X269718Y304110D02*
X293734D01*
X279757Y311000D02*
X283695D01*
X281726Y309032D02*
Y312968D01*
X338142Y202948D02*
X355858D01*
X338142Y226964D02*
X355858D01*
X338142Y202948D02*
Y226964D01*
X355858Y202948D02*
Y226964D01*
X347000Y212987D02*
Y216924D01*
X345031Y214956D02*
X348969D01*
X298062Y340414D02*
X311842D01*
X298062Y316398D02*
X311842D01*
Y340414D01*
X298062Y316398D02*
Y340414D01*
X304952Y326438D02*
Y330375D01*
X302983Y328406D02*
X306921D01*
X154492Y304110D02*
Y317890D01*
X178508Y304110D02*
Y317890D01*
X154492D02*
X178508D01*
X154492Y304110D02*
X178508D01*
X164532Y311000D02*
X168468D01*
X166500Y309032D02*
Y312968D01*
X366128Y245988D02*
X394868D01*
X366128Y200122D02*
X394868D01*
Y245988D01*
X366128Y200122D02*
Y245988D01*
X380498Y221087D02*
Y225024D01*
X378530Y223055D02*
X382467D01*
X248814Y245588D02*
X277554D01*
X248814Y199722D02*
X277554D01*
Y245588D01*
X248814Y199722D02*
Y245588D01*
X263184Y220687D02*
Y224624D01*
X261216Y222655D02*
X265153D01*
X128646Y245488D02*
X157386D01*
X128646Y199622D02*
X157386D01*
Y245488D01*
X128646Y199622D02*
Y245488D01*
X143016Y220587D02*
Y224524D01*
X141047Y222555D02*
X144984D01*
X397500Y280130D02*
Y283870D01*
X395630Y282000D02*
X399370D01*
X292500Y291130D02*
Y294870D01*
X290630Y293000D02*
X294370D01*
X397009Y293400D02*
X400947D01*
X398978Y291431D02*
Y295369D01*
X279291Y294474D02*
X283228D01*
X281260Y292506D02*
Y296443D01*
X399644Y245988D02*
X428384D01*
X399644Y200122D02*
X428384D01*
Y245988D01*
X399644Y200122D02*
Y245988D01*
X414014Y221087D02*
Y225024D01*
X412046Y223055D02*
X415983D01*
X282330Y245533D02*
X311070D01*
X282330Y199667D02*
X311070D01*
Y245533D01*
X282330Y199667D02*
Y245533D01*
X296700Y220632D02*
Y224569D01*
X294731Y222600D02*
X298669D01*
D14*
X186352Y336286D02*
D03*
X420878Y335932D02*
D03*
X304952Y336192D02*
D03*
D15*
X229500Y207714D02*
D03*
X464500Y207137D02*
D03*
X347000Y207170D02*
D03*
D16*
X390940Y310000D02*
D03*
X273939Y311000D02*
D03*
X158714D02*
D03*
D17*
X178453Y286445D02*
Y298650D01*
X172547Y286445D02*
Y298650D01*
X178453D01*
X172547Y286445D02*
X178453D01*
X155913Y301799D02*
X170087D01*
X155913Y286248D02*
X170087D01*
Y301799D01*
X155913Y286248D02*
Y301799D01*
X391398Y279047D02*
X403602D01*
X391398Y284953D02*
X403602D01*
Y279047D02*
Y284953D01*
X391398Y279047D02*
Y284953D01*
X289547Y286898D02*
X295453D01*
X289547Y299102D02*
X295453D01*
X289547Y286898D02*
Y299102D01*
X295453Y286898D02*
Y299102D01*
X406753Y286313D02*
Y300487D01*
X391202Y286313D02*
Y300487D01*
Y286313D02*
X406753D01*
X391202Y300487D02*
X406753D01*
X274173Y286698D02*
Y302250D01*
X288347Y286698D02*
Y302250D01*
X274173Y286698D02*
X288347D01*
X274173Y302250D02*
X288347D01*
M02*
