G04*
G04 #@! TF.GenerationSoftware,Altium Limited,Altium Designer,18.1.6 (161)*
G04*
G04 Layer_Color=32768*
%FSLAX25Y25*%
%MOIN*%
G70*
G01*
G75*
%ADD13C,0.00394*%
%ADD14R,0.11496X0.02420*%
%ADD15R,0.15512X0.02420*%
%ADD16R,0.02420X0.11496*%
%ADD17C,0.00197*%
D13*
X179462Y340508D02*
X193242D01*
X179462Y316492D02*
X193242D01*
Y340508D01*
X179462Y316492D02*
Y340508D01*
X186352Y326532D02*
Y330469D01*
X184383Y328500D02*
X188321D01*
X227532Y215500D02*
X231469D01*
X229500Y213531D02*
Y217469D01*
X238358Y203492D02*
Y227508D01*
X220642Y203492D02*
Y227508D01*
X238358D01*
X220642Y203492D02*
X238358D01*
X173630Y292547D02*
X177370D01*
X175500Y290677D02*
Y294417D01*
X163000Y292055D02*
Y295992D01*
X161031Y294024D02*
X164969D01*
X163370Y245488D02*
X192110D01*
X163370Y199622D02*
X192110D01*
Y245488D01*
X163370Y199622D02*
Y245488D01*
X177740Y220587D02*
Y224524D01*
X175772Y222555D02*
X179709D01*
X386718Y303110D02*
Y316890D01*
X410734Y303110D02*
Y316890D01*
X386718D02*
X410734D01*
X386718Y303110D02*
X410734D01*
X396758Y310000D02*
X400695D01*
X398726Y308032D02*
Y311968D01*
X462532Y214923D02*
X466468D01*
X464500Y212954D02*
Y216891D01*
X473358Y202915D02*
Y226931D01*
X455642Y202915D02*
Y226931D01*
X473358D01*
X455642Y202915D02*
X473358D01*
X418910Y328146D02*
X422847D01*
X420878Y326177D02*
Y330114D01*
X413988Y316138D02*
Y340154D01*
X427768Y316138D02*
Y340154D01*
X413988Y316138D02*
X427768D01*
X413988Y340154D02*
X427768D01*
X269718Y304110D02*
Y317890D01*
X293734Y304110D02*
Y317890D01*
X269718D02*
X293734D01*
X269718Y304110D02*
X293734D01*
X279757Y311000D02*
X283695D01*
X281726Y309032D02*
Y312968D01*
X338142Y202948D02*
X355858D01*
X338142Y226964D02*
X355858D01*
X338142Y202948D02*
Y226964D01*
X355858Y202948D02*
Y226964D01*
X347000Y212987D02*
Y216924D01*
X345031Y214956D02*
X348969D01*
X298062Y340414D02*
X311842D01*
X298062Y316398D02*
X311842D01*
Y340414D01*
X298062Y316398D02*
Y340414D01*
X304952Y326438D02*
Y330375D01*
X302983Y328406D02*
X306921D01*
X154492Y304110D02*
Y317890D01*
X178508Y304110D02*
Y317890D01*
X154492D02*
X178508D01*
X154492Y304110D02*
X178508D01*
X164532Y311000D02*
X168468D01*
X166500Y309032D02*
Y312968D01*
X366128Y245988D02*
X394868D01*
X366128Y200122D02*
X394868D01*
Y245988D01*
X366128Y200122D02*
Y245988D01*
X380498Y221087D02*
Y225024D01*
X378530Y223055D02*
X382467D01*
X248814Y245588D02*
X277554D01*
X248814Y199722D02*
X277554D01*
Y245588D01*
X248814Y199722D02*
Y245588D01*
X263184Y220687D02*
Y224624D01*
X261216Y222655D02*
X265153D01*
X128646Y245488D02*
X157386D01*
X128646Y199622D02*
X157386D01*
Y245488D01*
X128646Y199622D02*
Y245488D01*
X143016Y220587D02*
Y224524D01*
X141047Y222555D02*
X144984D01*
X397500Y280130D02*
Y283870D01*
X395630Y282000D02*
X399370D01*
X292500Y291130D02*
Y294870D01*
X290630Y293000D02*
X294370D01*
X397009Y293400D02*
X400947D01*
X398978Y291431D02*
Y295369D01*
X279291Y294474D02*
X283228D01*
X281260Y292506D02*
Y296443D01*
X399644Y245988D02*
X428384D01*
X399644Y200122D02*
X428384D01*
Y245988D01*
X399644Y200122D02*
Y245988D01*
X414014Y221087D02*
Y225024D01*
X412046Y223055D02*
X415983D01*
X282330Y245533D02*
X311070D01*
X282330Y199667D02*
X311070D01*
Y245533D01*
X282330Y199667D02*
Y245533D01*
X296700Y220632D02*
Y224569D01*
X294731Y222600D02*
X298669D01*
X180604Y337496D02*
X192100D01*
X180604Y319504D02*
X192100D01*
Y337496D01*
X180604Y319504D02*
Y337496D01*
X237256Y206504D02*
Y224496D01*
X221744Y206504D02*
Y224496D01*
X237256D01*
X221744Y206504D02*
X237256D01*
X177370Y289102D02*
Y295992D01*
X173630Y289102D02*
Y295992D01*
X177370D01*
X173630Y289102D02*
X177370D01*
X156996Y297468D02*
X169004D01*
X156996Y290579D02*
X169004D01*
Y297468D01*
X156996Y290579D02*
Y297468D01*
X164453Y232594D02*
X191028D01*
X164453Y208106D02*
X191028D01*
Y232594D01*
X164453Y208106D02*
Y232594D01*
X389730Y304252D02*
Y315748D01*
X407722Y304252D02*
Y315748D01*
X389730D02*
X407722D01*
X389730Y304252D02*
X407722D01*
X472256Y205927D02*
Y223919D01*
X456744Y205927D02*
Y223919D01*
X472256D01*
X456744Y205927D02*
X472256D01*
X415130Y319150D02*
Y337142D01*
X426626Y319150D02*
Y337142D01*
X415130Y319150D02*
X426626D01*
X415130Y337142D02*
X426626D01*
X272730Y305252D02*
Y316748D01*
X290722Y305252D02*
Y316748D01*
X272730D02*
X290722D01*
X272730Y305252D02*
X290722D01*
X339244Y205960D02*
X354756D01*
X339244Y223952D02*
X354756D01*
X339244Y205960D02*
Y223952D01*
X354756Y205960D02*
Y223952D01*
X299204Y337402D02*
X310700D01*
X299204Y319410D02*
X310700D01*
Y337402D01*
X299204Y319410D02*
Y337402D01*
X157504Y305252D02*
Y316748D01*
X175496Y305252D02*
Y316748D01*
X157504D02*
X175496D01*
X157504Y305252D02*
X175496D01*
X367211Y233095D02*
X393786D01*
X367211Y208606D02*
X393786D01*
Y233095D01*
X367211Y208606D02*
Y233095D01*
X249897Y232695D02*
X276472D01*
X249897Y208206D02*
X276472D01*
Y232695D01*
X249897Y208206D02*
Y232695D01*
X129728Y232594D02*
X156303D01*
X129728Y208106D02*
X156303D01*
Y232594D01*
X129728Y208106D02*
Y232594D01*
X394055Y280130D02*
X400945D01*
X394055Y283870D02*
X400945D01*
Y280130D02*
Y283870D01*
X394055Y280130D02*
Y283870D01*
X290630Y289555D02*
X294370D01*
X290630Y296445D02*
X294370D01*
X290630Y289555D02*
Y296445D01*
X294370Y289555D02*
Y296445D01*
X402423Y287396D02*
Y299404D01*
X395533Y287396D02*
Y299404D01*
Y287396D02*
X402423D01*
X395533Y299404D02*
X402423D01*
X275256Y291029D02*
Y297919D01*
X287264Y291029D02*
Y297919D01*
X275256Y291029D02*
X287264D01*
X275256Y297919D02*
X287264D01*
X400727Y233095D02*
X427302D01*
X400727Y208606D02*
X427302D01*
Y233095D01*
X400727Y208606D02*
Y233095D01*
X283413Y232639D02*
X309987D01*
X283413Y208151D02*
X309987D01*
Y232639D01*
X283413Y208151D02*
Y232639D01*
X179462Y340508D02*
X193242D01*
X179462Y316492D02*
X193242D01*
Y340508D01*
X179462Y316492D02*
Y340508D01*
X186352Y326532D02*
Y330469D01*
X184383Y328500D02*
X188321D01*
X227532Y215500D02*
X231469D01*
X229500Y213531D02*
Y217469D01*
X238358Y203492D02*
Y227508D01*
X220642Y203492D02*
Y227508D01*
X238358D01*
X220642Y203492D02*
X238358D01*
X173630Y292547D02*
X177370D01*
X175500Y290677D02*
Y294417D01*
X163000Y292055D02*
Y295992D01*
X161031Y294024D02*
X164969D01*
X163370Y245488D02*
X192110D01*
X163370Y199622D02*
X192110D01*
Y245488D01*
X163370Y199622D02*
Y245488D01*
X177740Y220587D02*
Y224524D01*
X175772Y222555D02*
X179709D01*
X386718Y303110D02*
Y316890D01*
X410734Y303110D02*
Y316890D01*
X386718D02*
X410734D01*
X386718Y303110D02*
X410734D01*
X396758Y310000D02*
X400695D01*
X398726Y308032D02*
Y311968D01*
X462532Y214923D02*
X466468D01*
X464500Y212954D02*
Y216891D01*
X473358Y202915D02*
Y226931D01*
X455642Y202915D02*
Y226931D01*
X473358D01*
X455642Y202915D02*
X473358D01*
X418910Y328146D02*
X422847D01*
X420878Y326177D02*
Y330114D01*
X413988Y316138D02*
Y340154D01*
X427768Y316138D02*
Y340154D01*
X413988Y316138D02*
X427768D01*
X413988Y340154D02*
X427768D01*
X269718Y304110D02*
Y317890D01*
X293734Y304110D02*
Y317890D01*
X269718D02*
X293734D01*
X269718Y304110D02*
X293734D01*
X279757Y311000D02*
X283695D01*
X281726Y309032D02*
Y312968D01*
X338142Y202948D02*
X355858D01*
X338142Y226964D02*
X355858D01*
X338142Y202948D02*
Y226964D01*
X355858Y202948D02*
Y226964D01*
X347000Y212987D02*
Y216924D01*
X345031Y214956D02*
X348969D01*
X298062Y340414D02*
X311842D01*
X298062Y316398D02*
X311842D01*
Y340414D01*
X298062Y316398D02*
Y340414D01*
X304952Y326438D02*
Y330375D01*
X302983Y328406D02*
X306921D01*
X154492Y304110D02*
Y317890D01*
X178508Y304110D02*
Y317890D01*
X154492D02*
X178508D01*
X154492Y304110D02*
X178508D01*
X164532Y311000D02*
X168468D01*
X166500Y309032D02*
Y312968D01*
X366128Y245988D02*
X394868D01*
X366128Y200122D02*
X394868D01*
Y245988D01*
X366128Y200122D02*
Y245988D01*
X380498Y221087D02*
Y225024D01*
X378530Y223055D02*
X382467D01*
X248814Y245588D02*
X277554D01*
X248814Y199722D02*
X277554D01*
Y245588D01*
X248814Y199722D02*
Y245588D01*
X263184Y220687D02*
Y224624D01*
X261216Y222655D02*
X265153D01*
X128646Y245488D02*
X157386D01*
X128646Y199622D02*
X157386D01*
Y245488D01*
X128646Y199622D02*
Y245488D01*
X143016Y220587D02*
Y224524D01*
X141047Y222555D02*
X144984D01*
X397500Y280130D02*
Y283870D01*
X395630Y282000D02*
X399370D01*
X292500Y291130D02*
Y294870D01*
X290630Y293000D02*
X294370D01*
X397009Y293400D02*
X400947D01*
X398978Y291431D02*
Y295369D01*
X279291Y294474D02*
X283228D01*
X281260Y292506D02*
Y296443D01*
X399644Y245988D02*
X428384D01*
X399644Y200122D02*
X428384D01*
Y245988D01*
X399644Y200122D02*
Y245988D01*
X414014Y221087D02*
Y225024D01*
X412046Y223055D02*
X415983D01*
X282330Y245533D02*
X311070D01*
X282330Y199667D02*
X311070D01*
Y245533D01*
X282330Y199667D02*
Y245533D01*
X296700Y220632D02*
Y224569D01*
X294731Y222600D02*
X298669D01*
D14*
X186352Y336286D02*
D03*
X420878Y335932D02*
D03*
X304952Y336192D02*
D03*
D15*
X229500Y207714D02*
D03*
X464500Y207137D02*
D03*
X347000Y207170D02*
D03*
D16*
X390940Y310000D02*
D03*
X273939Y311000D02*
D03*
X158714D02*
D03*
D17*
X178453Y286445D02*
Y298650D01*
X172547Y286445D02*
Y298650D01*
X178453D01*
X172547Y286445D02*
X178453D01*
X155913Y301799D02*
X170087D01*
X155913Y286248D02*
X170087D01*
Y301799D01*
X155913Y286248D02*
Y301799D01*
X391398Y279047D02*
X403602D01*
X391398Y284953D02*
X403602D01*
Y279047D02*
Y284953D01*
X391398Y279047D02*
Y284953D01*
X289547Y286898D02*
X295453D01*
X289547Y299102D02*
X295453D01*
X289547Y286898D02*
Y299102D01*
X295453Y286898D02*
Y299102D01*
X406753Y286313D02*
Y300487D01*
X391202Y286313D02*
Y300487D01*
Y286313D02*
X406753D01*
X391202Y300487D02*
X406753D01*
X274173Y286698D02*
Y302250D01*
X288347Y286698D02*
Y302250D01*
X274173Y286698D02*
X288347D01*
X274173Y302250D02*
X288347D01*
X178453Y286445D02*
Y298650D01*
X172547Y286445D02*
Y298650D01*
X178453D01*
X172547Y286445D02*
X178453D01*
X155913Y301799D02*
X170087D01*
X155913Y286248D02*
X170087D01*
Y301799D01*
X155913Y286248D02*
Y301799D01*
X391398Y279047D02*
X403602D01*
X391398Y284953D02*
X403602D01*
Y279047D02*
Y284953D01*
X391398Y279047D02*
Y284953D01*
X289547Y286898D02*
X295453D01*
X289547Y299102D02*
X295453D01*
X289547Y286898D02*
Y299102D01*
X295453Y286898D02*
Y299102D01*
X406753Y286313D02*
Y300487D01*
X391202Y286313D02*
Y300487D01*
Y286313D02*
X406753D01*
X391202Y300487D02*
X406753D01*
X274173Y286698D02*
Y302250D01*
X288347Y286698D02*
Y302250D01*
X274173Y286698D02*
X288347D01*
X274173Y302250D02*
X288347D01*
M02*
