G04*
G04 #@! TF.GenerationSoftware,Altium Limited,Altium Designer,18.1.6 (161)*
G04*
G04 Layer_Color=65535*
%FSLAX25Y25*%
%MOIN*%
G70*
G01*
G75*
%ADD10C,0.00984*%
%ADD11C,0.00787*%
%ADD12C,0.01000*%
%ADD13C,0.00394*%
%ADD14R,0.11496X0.02420*%
%ADD15R,0.15512X0.02420*%
%ADD16R,0.02420X0.11496*%
%ADD17C,0.00197*%
D10*
X193340Y340114D02*
G03*
X193340Y340114I-492J0D01*
G01*
X223299Y203886D02*
G03*
X223299Y203886I-492J0D01*
G01*
X170579Y298650D02*
G03*
X170579Y298650I-492J0D01*
G01*
X191874Y238500D02*
G03*
X191874Y238500I-492J0D01*
G01*
X387604Y316496D02*
G03*
X387604Y316496I-492J0D01*
G01*
X458299Y203309D02*
G03*
X458299Y203309I-492J0D01*
G01*
X427866Y339760D02*
G03*
X427866Y339760I-492J0D01*
G01*
X270604Y317496D02*
G03*
X270604Y317496I-492J0D01*
G01*
X340799Y203342D02*
G03*
X340799Y203342I-492J0D01*
G01*
X311940Y340020D02*
G03*
X311940Y340020I-492J0D01*
G01*
X155378Y317496D02*
G03*
X155378Y317496I-492J0D01*
G01*
X394632Y239000D02*
G03*
X394632Y239000I-492J0D01*
G01*
X277318Y238600D02*
G03*
X277318Y238600I-492J0D01*
G01*
X157150Y238500D02*
G03*
X157150Y238500I-492J0D01*
G01*
X404096Y286313D02*
G03*
X404096Y286313I-492J0D01*
G01*
X288839Y299100D02*
G03*
X288839Y299100I-492J0D01*
G01*
X428148Y239000D02*
G03*
X428148Y239000I-492J0D01*
G01*
X310834Y238545D02*
G03*
X310834Y238545I-492J0D01*
G01*
D11*
X192257Y319445D02*
Y337555D01*
X180447Y319445D02*
Y337555D01*
X235602Y224555D02*
X237374D01*
X235602Y206445D02*
X237374D01*
X221626Y224555D02*
X223398D01*
X221626Y206445D02*
X223398D01*
X237374D02*
Y224555D01*
X221626Y206445D02*
Y224555D01*
X169102Y293039D02*
Y295008D01*
X156898Y293039D02*
Y295008D01*
X169102D01*
X156898Y293039D02*
X169102D01*
X190929Y230823D02*
Y230921D01*
X164551D02*
X190929D01*
X164551Y230823D02*
Y230921D01*
X389671Y315905D02*
X407781D01*
X389671Y304095D02*
X407781D01*
X470602Y223978D02*
X472374D01*
X470602Y205868D02*
X472374D01*
X456626Y223978D02*
X458398D01*
X456626Y205868D02*
X458398D01*
X472374D02*
Y223978D01*
X456626Y205868D02*
Y223978D01*
X414972Y319091D02*
Y337201D01*
X426784Y319091D02*
Y337201D01*
X272671Y316905D02*
X290781D01*
X272671Y305095D02*
X290781D01*
X339126Y205901D02*
Y224011D01*
X354874Y205901D02*
Y224011D01*
X339126Y205901D02*
X340898D01*
X339126Y224011D02*
X340898D01*
X353102Y205901D02*
X354874D01*
X353102Y224011D02*
X354874D01*
X310858Y319351D02*
Y337461D01*
X299046Y319351D02*
Y337461D01*
X157445Y316905D02*
X175555D01*
X157445Y305095D02*
X175555D01*
X393687Y231323D02*
Y231421D01*
X367309D02*
X393687D01*
X367309Y231323D02*
Y231421D01*
X276373Y230923D02*
Y231021D01*
X249995D02*
X276373D01*
X249995Y230923D02*
Y231021D01*
X156205Y230823D02*
Y230921D01*
X129827D02*
X156205D01*
X129827Y230823D02*
Y230921D01*
X397994Y287298D02*
X399962D01*
X397994Y299502D02*
X399962D01*
Y287298D02*
Y299502D01*
X397994Y287298D02*
Y299502D01*
X275157Y293490D02*
X287362D01*
X275157Y295458D02*
X287362D01*
X275157Y293490D02*
Y295458D01*
X287362Y293490D02*
Y295458D01*
X427203Y231323D02*
Y231421D01*
X400825D02*
X427203D01*
X400825Y231323D02*
Y231421D01*
X309889Y230868D02*
Y230966D01*
X283511D02*
X309889D01*
X283511Y230868D02*
Y230966D01*
D12*
X181903Y304425D02*
X190722D01*
X180525Y314937D02*
X192179D01*
X180525Y294583D02*
Y314937D01*
Y294583D02*
X192179D01*
Y314937D01*
X396679Y320102D02*
Y340457D01*
X385025Y320102D02*
X396679D01*
X385025D02*
Y340457D01*
X396679D01*
X386403Y329945D02*
X395222D01*
X453327Y201161D02*
Y221515D01*
X441673Y201161D02*
X453327D01*
X441673D02*
Y221515D01*
X453327D01*
X443051Y211003D02*
X451870D01*
X426705Y293602D02*
Y313957D01*
X415051Y293602D02*
X426705D01*
X415051D02*
Y313957D01*
X426705D01*
X416429Y303445D02*
X425248D01*
X269403Y329825D02*
X278222D01*
X268025Y340337D02*
X279679D01*
X268025Y319983D02*
Y340337D01*
Y319983D02*
X279679D01*
Y340337D01*
X325051Y211003D02*
X333870D01*
X323673Y221515D02*
X335327D01*
X323673Y201161D02*
Y221515D01*
Y201161D02*
X335327D01*
Y221515D01*
X300503Y304945D02*
X309322D01*
X299125Y315457D02*
X310779D01*
X299125Y295102D02*
Y315457D01*
Y295102D02*
X310779D01*
Y315457D01*
X154051Y329706D02*
X162870D01*
X152673Y340217D02*
X164327D01*
X152673Y319863D02*
Y340217D01*
Y319863D02*
X164327D01*
Y340217D01*
X207551Y210945D02*
X216370D01*
X206173Y221457D02*
X217827D01*
X206173Y201102D02*
Y221457D01*
Y201102D02*
X217827D01*
Y221457D01*
X195000Y335798D02*
Y329800D01*
X197999D01*
X198999Y330800D01*
Y334798D01*
X197999Y335798D01*
X195000D01*
X200998Y330800D02*
X201998Y329800D01*
X203997D01*
X204997Y330800D01*
Y334798D01*
X203997Y335798D01*
X201998D01*
X200998Y334798D01*
Y333799D01*
X201998Y332799D01*
X204997D01*
X246498Y219000D02*
X240500D01*
Y216001D01*
X241500Y215001D01*
X245498D01*
X246498Y216001D01*
Y219000D01*
X245498Y213002D02*
X246498Y212002D01*
Y210003D01*
X245498Y209003D01*
X244499D01*
X243499Y210003D01*
X242499Y209003D01*
X241500D01*
X240500Y210003D01*
Y212002D01*
X241500Y213002D01*
X242499D01*
X243499Y212002D01*
X244499Y213002D01*
X245498D01*
X243499Y212002D02*
Y210003D01*
X181500Y285500D02*
Y291498D01*
X184499D01*
X185499Y290498D01*
Y288499D01*
X184499Y287499D01*
X181500D01*
X183499D02*
X185499Y285500D01*
X187498Y290498D02*
X188498Y291498D01*
X190497D01*
X191497Y290498D01*
Y289499D01*
X190497Y288499D01*
X189497D01*
X190497D01*
X191497Y287499D01*
Y286500D01*
X190497Y285500D01*
X188498D01*
X187498Y286500D01*
X148002Y292500D02*
X153000D01*
X154000Y293500D01*
Y295499D01*
X153000Y296499D01*
X148002D01*
X149002Y298498D02*
X148002Y299498D01*
Y301497D01*
X149002Y302497D01*
X150001D01*
X151001Y301497D01*
Y300497D01*
Y301497D01*
X152001Y302497D01*
X153000D01*
X154000Y301497D01*
Y299498D01*
X153000Y298498D01*
X197999Y221500D02*
Y225498D01*
X196999Y226498D01*
X195000D01*
X194000Y225498D01*
Y221500D01*
X195000Y220500D01*
X196999D01*
X195999Y222499D02*
X197999Y220500D01*
X196999D02*
X197999Y221500D01*
X203997Y226498D02*
X201997Y225498D01*
X199998Y223499D01*
Y221500D01*
X200998Y220500D01*
X202997D01*
X203997Y221500D01*
Y222499D01*
X202997Y223499D01*
X199998D01*
X198999Y311798D02*
X197999Y312798D01*
X196000D01*
X195000Y311798D01*
Y307800D01*
X196000Y306800D01*
X197999D01*
X198999Y307800D01*
X200998D02*
X201998Y306800D01*
X203997D01*
X204997Y307800D01*
Y311798D01*
X203997Y312798D01*
X201998D01*
X200998Y311798D01*
Y310799D01*
X201998Y309799D01*
X204997D01*
X402499Y335498D02*
X401499Y336498D01*
X399500D01*
X398500Y335498D01*
Y331500D01*
X399500Y330500D01*
X401499D01*
X402499Y331500D01*
X404498Y330500D02*
X406497D01*
X405498D01*
Y336498D01*
X404498Y335498D01*
X434002Y212077D02*
X433002Y211077D01*
Y209078D01*
X434002Y208078D01*
X438000D01*
X439000Y209078D01*
Y211077D01*
X438000Y212077D01*
X439000Y218075D02*
Y214076D01*
X435001Y218075D01*
X434002D01*
X433002Y217075D01*
Y215076D01*
X434002Y214076D01*
X433499Y312518D02*
X432499Y313518D01*
X430500D01*
X429500Y312518D01*
Y308519D01*
X430500Y307520D01*
X432499D01*
X433499Y308519D01*
X435498Y312518D02*
X436498Y313518D01*
X438497D01*
X439497Y312518D01*
Y311518D01*
X438497Y310519D01*
X437497D01*
X438497D01*
X439497Y309519D01*
Y308519D01*
X438497Y307520D01*
X436498D01*
X435498Y308519D01*
X286499Y334998D02*
X285499Y335998D01*
X283500D01*
X282500Y334998D01*
Y331000D01*
X283500Y330000D01*
X285499D01*
X286499Y331000D01*
X291497Y330000D02*
Y335998D01*
X288498Y332999D01*
X292497D01*
X316502Y209557D02*
X315502Y208557D01*
Y206558D01*
X316502Y205558D01*
X320500D01*
X321500Y206558D01*
Y208557D01*
X320500Y209557D01*
X315502Y215555D02*
Y211556D01*
X318501D01*
X317501Y213556D01*
Y214555D01*
X318501Y215555D01*
X320500D01*
X321500Y214555D01*
Y212556D01*
X320500Y211556D01*
X317625Y314222D02*
X316625Y315222D01*
X314626D01*
X313626Y314222D01*
Y310223D01*
X314626Y309224D01*
X316625D01*
X317625Y310223D01*
X323623Y315222D02*
X321623Y314222D01*
X319624Y312223D01*
Y310223D01*
X320624Y309224D01*
X322623D01*
X323623Y310223D01*
Y311223D01*
X322623Y312223D01*
X319624D01*
X170825Y334059D02*
X169825Y335059D01*
X167826D01*
X166826Y334059D01*
Y330060D01*
X167826Y329061D01*
X169825D01*
X170825Y330060D01*
X172824Y335059D02*
X176823D01*
Y334059D01*
X172824Y330060D01*
Y329061D01*
X197002Y211034D02*
X196002Y210034D01*
Y208035D01*
X197002Y207035D01*
X201000D01*
X202000Y208035D01*
Y210034D01*
X201000Y211034D01*
X197002Y213034D02*
X196002Y214033D01*
Y216033D01*
X197002Y217032D01*
X198001D01*
X199001Y216033D01*
X200001Y217032D01*
X201000D01*
X202000Y216033D01*
Y214033D01*
X201000Y213034D01*
X200001D01*
X199001Y214033D01*
X198001Y213034D01*
X197002D01*
X199001Y214033D02*
Y216033D01*
X402378Y324998D02*
Y319000D01*
X405377D01*
X406377Y320000D01*
Y323998D01*
X405377Y324998D01*
X402378D01*
X408376Y319000D02*
X410375D01*
X409376D01*
Y324998D01*
X408376Y323998D01*
X482998Y221423D02*
X477000D01*
Y218424D01*
X478000Y217424D01*
X481998D01*
X482998Y218424D01*
Y221423D01*
X477000Y211426D02*
Y215425D01*
X480999Y211426D01*
X481998D01*
X482998Y212426D01*
Y214425D01*
X481998Y215425D01*
X430000Y336498D02*
Y330500D01*
X432999D01*
X433999Y331500D01*
Y335498D01*
X432999Y336498D01*
X430000D01*
X435998Y335498D02*
X436998Y336498D01*
X438997D01*
X439997Y335498D01*
Y334499D01*
X438997Y333499D01*
X437997D01*
X438997D01*
X439997Y332499D01*
Y331500D01*
X438997Y330500D01*
X436998D01*
X435998Y331500D01*
X285526Y326478D02*
Y320480D01*
X288525D01*
X289525Y321480D01*
Y325479D01*
X288525Y326478D01*
X285526D01*
X294523Y320480D02*
Y326478D01*
X291524Y323479D01*
X295523D01*
X363998Y219000D02*
X358000D01*
Y216001D01*
X359000Y215001D01*
X362998D01*
X363998Y216001D01*
Y219000D01*
Y209003D02*
Y213002D01*
X360999D01*
X361999Y211003D01*
Y210003D01*
X360999Y209003D01*
X359000D01*
X358000Y210003D01*
Y212002D01*
X359000Y213002D01*
X313500Y336498D02*
Y330500D01*
X316499D01*
X317499Y331500D01*
Y335498D01*
X316499Y336498D01*
X313500D01*
X323497D02*
X321497Y335498D01*
X319498Y333499D01*
Y331500D01*
X320498Y330500D01*
X322497D01*
X323497Y331500D01*
Y332499D01*
X322497Y333499D01*
X319498D01*
X166525Y325498D02*
Y319500D01*
X169524D01*
X170524Y320500D01*
Y324498D01*
X169524Y325498D01*
X166525D01*
X172523D02*
X176522D01*
Y324498D01*
X172523Y320500D01*
Y319500D01*
X359499Y227000D02*
Y230998D01*
X358499Y231998D01*
X356500D01*
X355500Y230998D01*
Y227000D01*
X356500Y226000D01*
X358499D01*
X357499Y227999D02*
X359499Y226000D01*
X358499D02*
X359499Y227000D01*
X361498Y226000D02*
X363497D01*
X362498D01*
Y231998D01*
X361498Y230998D01*
X240499Y228000D02*
Y231998D01*
X239499Y232998D01*
X237500D01*
X236500Y231998D01*
Y228000D01*
X237500Y227000D01*
X239499D01*
X238499Y228999D02*
X240499Y227000D01*
X239499D02*
X240499Y228000D01*
X246497Y227000D02*
X242498D01*
X246497Y230999D01*
Y231998D01*
X245497Y232998D01*
X243498D01*
X242498Y231998D01*
X126000Y217999D02*
X122002D01*
X121002Y216999D01*
Y215000D01*
X122002Y214000D01*
X126000D01*
X127000Y215000D01*
Y216999D01*
X125001Y215999D02*
X127000Y217999D01*
Y216999D02*
X126000Y217999D01*
X122002Y219998D02*
X121002Y220998D01*
Y222997D01*
X122002Y223997D01*
X123001D01*
X124001Y222997D01*
Y221997D01*
Y222997D01*
X125001Y223997D01*
X126000D01*
X127000Y222997D01*
Y220998D01*
X126000Y219998D01*
X406598Y279000D02*
Y284998D01*
X409597D01*
X410597Y283998D01*
Y281999D01*
X409597Y280999D01*
X406598D01*
X408598D02*
X410597Y279000D01*
X412597D02*
X414596D01*
X413596D01*
Y284998D01*
X412597Y283998D01*
X296400Y286800D02*
Y292798D01*
X299399D01*
X300399Y291798D01*
Y289799D01*
X299399Y288799D01*
X296400D01*
X298399D02*
X300399Y286800D01*
X306397D02*
X302398D01*
X306397Y290799D01*
Y291798D01*
X305397Y292798D01*
X303398D01*
X302398Y291798D01*
X416500Y291498D02*
Y286500D01*
X417500Y285500D01*
X419499D01*
X420499Y286500D01*
Y291498D01*
X422498Y285500D02*
X424497D01*
X423498D01*
Y291498D01*
X422498Y290498D01*
X267002Y293000D02*
X272000D01*
X273000Y294000D01*
Y295999D01*
X272000Y296999D01*
X267002D01*
X273000Y302997D02*
Y298998D01*
X269001Y302997D01*
X268002D01*
X267002Y301997D01*
Y299998D01*
X268002Y298998D01*
X433999Y225000D02*
Y228998D01*
X432999Y229998D01*
X431000D01*
X430000Y228998D01*
Y225000D01*
X431000Y224000D01*
X432999D01*
X431999Y225999D02*
X433999Y224000D01*
X432999D02*
X433999Y225000D01*
X438997Y224000D02*
Y229998D01*
X435998Y226999D01*
X439997D01*
X316999Y226000D02*
Y229998D01*
X315999Y230998D01*
X314000D01*
X313000Y229998D01*
Y226000D01*
X314000Y225000D01*
X315999D01*
X314999Y226999D02*
X316999Y225000D01*
X315999D02*
X316999Y226000D01*
X322997Y230998D02*
X318998D01*
Y227999D01*
X320997Y228999D01*
X321997D01*
X322997Y227999D01*
Y226000D01*
X321997Y225000D01*
X319998D01*
X318998Y226000D01*
X524999Y167998D02*
X523000D01*
X522000Y166998D01*
Y163000D01*
X523000Y162000D01*
X524999D01*
X525999Y163000D01*
Y166998D01*
X524999Y167998D01*
X527998Y165999D02*
Y163000D01*
X528998Y162000D01*
X531997D01*
Y165999D01*
X534996Y166998D02*
Y165999D01*
X533996D01*
X535995D01*
X534996D01*
Y163000D01*
X535995Y162000D01*
X547992D02*
Y167998D01*
X544993Y164999D01*
X548991D01*
X524999Y191498D02*
X523000D01*
X522000Y190498D01*
Y186500D01*
X523000Y185500D01*
X524999D01*
X525999Y186500D01*
Y190498D01*
X524999Y191498D01*
X527998Y189499D02*
Y186500D01*
X528998Y185500D01*
X531997D01*
Y189499D01*
X534996Y190498D02*
Y189499D01*
X533996D01*
X535995D01*
X534996D01*
Y186500D01*
X535995Y185500D01*
X544993Y190498D02*
X545992Y191498D01*
X547992D01*
X548991Y190498D01*
Y189499D01*
X547992Y188499D01*
X546992D01*
X547992D01*
X548991Y187499D01*
Y186500D01*
X547992Y185500D01*
X545992D01*
X544993Y186500D01*
X505502Y262500D02*
X511500D01*
Y265499D01*
X510500Y266499D01*
X506502D01*
X505502Y265499D01*
Y262500D01*
X507501Y269498D02*
Y271497D01*
X508501Y272497D01*
X511500D01*
Y269498D01*
X510500Y268498D01*
X509501Y269498D01*
Y272497D01*
X511500Y274496D02*
X507501D01*
Y277495D01*
X508501Y278495D01*
X511500D01*
Y280494D02*
Y282493D01*
Y281494D01*
X507501D01*
Y280494D01*
X511500Y288492D02*
Y286492D01*
X510500Y285493D01*
X508501D01*
X507501Y286492D01*
Y288492D01*
X508501Y289491D01*
X509501D01*
Y285493D01*
X511500Y291491D02*
Y293490D01*
Y292490D01*
X505502D01*
Y291491D01*
Y305486D02*
Y303487D01*
X506502Y302487D01*
X510500D01*
X511500Y303487D01*
Y305486D01*
X510500Y306486D01*
X506502D01*
X505502Y305486D01*
X511500Y308485D02*
Y310485D01*
Y309485D01*
X505502D01*
Y308485D01*
X511500Y313484D02*
Y315483D01*
Y314483D01*
X507501D01*
Y313484D01*
X511500Y318482D02*
Y321481D01*
X510500Y322481D01*
X509501Y321481D01*
Y319482D01*
X508501Y318482D01*
X507501Y319482D01*
Y322481D01*
X498500Y263800D02*
X492502D01*
Y266799D01*
X493502Y267799D01*
X495501D01*
X496501Y266799D01*
Y263800D01*
Y265799D02*
X498500Y267799D01*
Y272797D02*
Y270798D01*
X497500Y269798D01*
X495501D01*
X494501Y270798D01*
Y272797D01*
X495501Y273797D01*
X496501D01*
Y269798D01*
X494501Y275796D02*
X498500Y277796D01*
X494501Y279795D01*
X493502Y287792D02*
X492502Y288792D01*
Y290791D01*
X493502Y291791D01*
X497500D01*
X498500Y290791D01*
Y288792D01*
X497500Y287792D01*
X493502D01*
X480002Y266499D02*
X479002Y265499D01*
Y263500D01*
X480002Y262500D01*
X481001D01*
X482001Y263500D01*
Y265499D01*
X483001Y266499D01*
X484000D01*
X485000Y265499D01*
Y263500D01*
X484000Y262500D01*
X481001Y268498D02*
X484000D01*
X485000Y269498D01*
Y272497D01*
X481001D01*
X479002Y274496D02*
X485000D01*
Y277495D01*
X484000Y278495D01*
X483001D01*
X482001D01*
X481001Y277495D01*
Y274496D01*
X482001Y280494D02*
Y284493D01*
X485000Y286492D02*
X479002D01*
X481001Y288492D01*
X479002Y290491D01*
X485000D01*
Y295489D02*
Y293490D01*
X484000Y292490D01*
X482001D01*
X481001Y293490D01*
Y295489D01*
X482001Y296489D01*
X483001D01*
Y292490D01*
X481001Y298488D02*
X485000D01*
X483001D01*
X482001Y299488D01*
X481001Y300488D01*
Y301487D01*
X486999Y306486D02*
Y307485D01*
X486000Y308485D01*
X481001D01*
Y305486D01*
X482001Y304486D01*
X484000D01*
X485000Y305486D01*
Y308485D01*
Y313484D02*
Y311484D01*
X484000Y310485D01*
X482001D01*
X481001Y311484D01*
Y313484D01*
X482001Y314483D01*
X483001D01*
Y310485D01*
X479002Y322481D02*
X485000D01*
Y325480D01*
X484000Y326479D01*
X483001D01*
X482001Y325480D01*
Y322481D01*
Y325480D01*
X481001Y326479D01*
X480002D01*
X479002Y325480D01*
Y322481D01*
X485000Y329478D02*
Y331478D01*
X484000Y332477D01*
X482001D01*
X481001Y331478D01*
Y329478D01*
X482001Y328479D01*
X484000D01*
X485000Y329478D01*
X481001Y335476D02*
Y337476D01*
X482001Y338475D01*
X485000D01*
Y335476D01*
X484000Y334477D01*
X483001Y335476D01*
Y338475D01*
X481001Y340475D02*
X485000D01*
X483001D01*
X482001Y341475D01*
X481001Y342474D01*
Y343474D01*
X479002Y350471D02*
X485000D01*
Y347473D01*
X484000Y346473D01*
X482001D01*
X481001Y347473D01*
Y350471D01*
X59999Y165498D02*
X58000D01*
X57000Y164498D01*
Y160500D01*
X58000Y159500D01*
X59999D01*
X60999Y160500D01*
Y164498D01*
X59999Y165498D01*
X62998Y163499D02*
Y160500D01*
X63998Y159500D01*
X66997D01*
Y163499D01*
X69996Y164498D02*
Y163499D01*
X68996D01*
X70995D01*
X69996D01*
Y160500D01*
X70995Y159500D01*
X83991D02*
X79993D01*
X83991Y163499D01*
Y164498D01*
X82992Y165498D01*
X80992D01*
X79993Y164498D01*
X76502Y293400D02*
X82500D01*
Y296399D01*
X81500Y297399D01*
X80501D01*
X79501Y296399D01*
Y293400D01*
Y296399D01*
X78501Y297399D01*
X77502D01*
X76502Y296399D01*
Y293400D01*
X78501Y300398D02*
Y302397D01*
X79501Y303397D01*
X82500D01*
Y300398D01*
X81500Y299398D01*
X80501Y300398D01*
Y303397D01*
X77502Y306396D02*
X78501D01*
Y305396D01*
Y307396D01*
Y306396D01*
X81500D01*
X82500Y307396D01*
X77502Y311394D02*
X78501D01*
Y310395D01*
Y312394D01*
Y311394D01*
X81500D01*
X82500Y312394D01*
Y321391D02*
Y323390D01*
Y322391D01*
X76502D01*
X77502Y321391D01*
X60499Y188498D02*
X58500D01*
X57500Y187498D01*
Y183500D01*
X58500Y182500D01*
X60499D01*
X61499Y183500D01*
Y187498D01*
X60499Y188498D01*
X63498Y186499D02*
Y183500D01*
X64498Y182500D01*
X67497D01*
Y186499D01*
X70496Y187498D02*
Y186499D01*
X69496D01*
X71495D01*
X70496D01*
Y183500D01*
X71495Y182500D01*
X80493D02*
X82492D01*
X81492D01*
Y188498D01*
X80493Y187498D01*
D13*
X180604Y337496D02*
X192100D01*
X180604Y319504D02*
X192100D01*
Y337496D01*
X180604Y319504D02*
Y337496D01*
X237256Y206504D02*
Y224496D01*
X221744Y206504D02*
Y224496D01*
X237256D01*
X221744Y206504D02*
X237256D01*
X177370Y289102D02*
Y295992D01*
X173630Y289102D02*
Y295992D01*
X177370D01*
X173630Y289102D02*
X177370D01*
X156996Y297468D02*
X169004D01*
X156996Y290579D02*
X169004D01*
Y297468D01*
X156996Y290579D02*
Y297468D01*
X164453Y232594D02*
X191028D01*
X164453Y208106D02*
X191028D01*
Y232594D01*
X164453Y208106D02*
Y232594D01*
X389730Y304252D02*
Y315748D01*
X407722Y304252D02*
Y315748D01*
X389730D02*
X407722D01*
X389730Y304252D02*
X407722D01*
X472256Y205927D02*
Y223919D01*
X456744Y205927D02*
Y223919D01*
X472256D01*
X456744Y205927D02*
X472256D01*
X415130Y319150D02*
Y337142D01*
X426626Y319150D02*
Y337142D01*
X415130Y319150D02*
X426626D01*
X415130Y337142D02*
X426626D01*
X272730Y305252D02*
Y316748D01*
X290722Y305252D02*
Y316748D01*
X272730D02*
X290722D01*
X272730Y305252D02*
X290722D01*
X339244Y205960D02*
X354756D01*
X339244Y223952D02*
X354756D01*
X339244Y205960D02*
Y223952D01*
X354756Y205960D02*
Y223952D01*
X299204Y337402D02*
X310700D01*
X299204Y319410D02*
X310700D01*
Y337402D01*
X299204Y319410D02*
Y337402D01*
X157504Y305252D02*
Y316748D01*
X175496Y305252D02*
Y316748D01*
X157504D02*
X175496D01*
X157504Y305252D02*
X175496D01*
X367211Y233095D02*
X393786D01*
X367211Y208606D02*
X393786D01*
Y233095D01*
X367211Y208606D02*
Y233095D01*
X249897Y232695D02*
X276472D01*
X249897Y208206D02*
X276472D01*
Y232695D01*
X249897Y208206D02*
Y232695D01*
X129728Y232594D02*
X156303D01*
X129728Y208106D02*
X156303D01*
Y232594D01*
X129728Y208106D02*
Y232594D01*
X394055Y280130D02*
X400945D01*
X394055Y283870D02*
X400945D01*
Y280130D02*
Y283870D01*
X394055Y280130D02*
Y283870D01*
X290630Y289555D02*
X294370D01*
X290630Y296445D02*
X294370D01*
X290630Y289555D02*
Y296445D01*
X294370Y289555D02*
Y296445D01*
X402423Y287396D02*
Y299404D01*
X395533Y287396D02*
Y299404D01*
Y287396D02*
X402423D01*
X395533Y299404D02*
X402423D01*
X275256Y291029D02*
Y297919D01*
X287264Y291029D02*
Y297919D01*
X275256Y291029D02*
X287264D01*
X275256Y297919D02*
X287264D01*
X400727Y233095D02*
X427302D01*
X400727Y208606D02*
X427302D01*
Y233095D01*
X400727Y208606D02*
Y233095D01*
X283413Y232639D02*
X309987D01*
X283413Y208151D02*
X309987D01*
Y232639D01*
X283413Y208151D02*
Y232639D01*
X179462Y340508D02*
X193242D01*
X179462Y316492D02*
X193242D01*
Y340508D01*
X179462Y316492D02*
Y340508D01*
X186352Y326532D02*
Y330469D01*
X184383Y328500D02*
X188321D01*
X227532Y215500D02*
X231469D01*
X229500Y213531D02*
Y217469D01*
X238358Y203492D02*
Y227508D01*
X220642Y203492D02*
Y227508D01*
X238358D01*
X220642Y203492D02*
X238358D01*
X173630Y292547D02*
X177370D01*
X175500Y290677D02*
Y294417D01*
X163000Y292055D02*
Y295992D01*
X161031Y294024D02*
X164969D01*
X163370Y245488D02*
X192110D01*
X163370Y199622D02*
X192110D01*
Y245488D01*
X163370Y199622D02*
Y245488D01*
X177740Y220587D02*
Y224524D01*
X175772Y222555D02*
X179709D01*
X386718Y303110D02*
Y316890D01*
X410734Y303110D02*
Y316890D01*
X386718D02*
X410734D01*
X386718Y303110D02*
X410734D01*
X396758Y310000D02*
X400695D01*
X398726Y308032D02*
Y311968D01*
X462532Y214923D02*
X466468D01*
X464500Y212954D02*
Y216891D01*
X473358Y202915D02*
Y226931D01*
X455642Y202915D02*
Y226931D01*
X473358D01*
X455642Y202915D02*
X473358D01*
X418910Y328146D02*
X422847D01*
X420878Y326177D02*
Y330114D01*
X413988Y316138D02*
Y340154D01*
X427768Y316138D02*
Y340154D01*
X413988Y316138D02*
X427768D01*
X413988Y340154D02*
X427768D01*
X269718Y304110D02*
Y317890D01*
X293734Y304110D02*
Y317890D01*
X269718D02*
X293734D01*
X269718Y304110D02*
X293734D01*
X279757Y311000D02*
X283695D01*
X281726Y309032D02*
Y312968D01*
X338142Y202948D02*
X355858D01*
X338142Y226964D02*
X355858D01*
X338142Y202948D02*
Y226964D01*
X355858Y202948D02*
Y226964D01*
X347000Y212987D02*
Y216924D01*
X345031Y214956D02*
X348969D01*
X298062Y340414D02*
X311842D01*
X298062Y316398D02*
X311842D01*
Y340414D01*
X298062Y316398D02*
Y340414D01*
X304952Y326438D02*
Y330375D01*
X302983Y328406D02*
X306921D01*
X154492Y304110D02*
Y317890D01*
X178508Y304110D02*
Y317890D01*
X154492D02*
X178508D01*
X154492Y304110D02*
X178508D01*
X164532Y311000D02*
X168468D01*
X166500Y309032D02*
Y312968D01*
X366128Y245988D02*
X394868D01*
X366128Y200122D02*
X394868D01*
Y245988D01*
X366128Y200122D02*
Y245988D01*
X380498Y221087D02*
Y225024D01*
X378530Y223055D02*
X382467D01*
X248814Y245588D02*
X277554D01*
X248814Y199722D02*
X277554D01*
Y245588D01*
X248814Y199722D02*
Y245588D01*
X263184Y220687D02*
Y224624D01*
X261216Y222655D02*
X265153D01*
X128646Y245488D02*
X157386D01*
X128646Y199622D02*
X157386D01*
Y245488D01*
X128646Y199622D02*
Y245488D01*
X143016Y220587D02*
Y224524D01*
X141047Y222555D02*
X144984D01*
X397500Y280130D02*
Y283870D01*
X395630Y282000D02*
X399370D01*
X292500Y291130D02*
Y294870D01*
X290630Y293000D02*
X294370D01*
X397009Y293400D02*
X400947D01*
X398978Y291431D02*
Y295369D01*
X279291Y294474D02*
X283228D01*
X281260Y292506D02*
Y296443D01*
X399644Y245988D02*
X428384D01*
X399644Y200122D02*
X428384D01*
Y245988D01*
X399644Y200122D02*
Y245988D01*
X414014Y221087D02*
Y225024D01*
X412046Y223055D02*
X415983D01*
X282330Y245533D02*
X311070D01*
X282330Y199667D02*
X311070D01*
Y245533D01*
X282330Y199667D02*
Y245533D01*
X296700Y220632D02*
Y224569D01*
X294731Y222600D02*
X298669D01*
D14*
X186352Y336286D02*
D03*
X420878Y335932D02*
D03*
X304952Y336192D02*
D03*
D15*
X229500Y207714D02*
D03*
X464500Y207137D02*
D03*
X347000Y207170D02*
D03*
D16*
X390940Y310000D02*
D03*
X273939Y311000D02*
D03*
X158714D02*
D03*
D17*
X178453Y286445D02*
Y298650D01*
X172547Y286445D02*
Y298650D01*
X178453D01*
X172547Y286445D02*
X178453D01*
X155913Y301799D02*
X170087D01*
X155913Y286248D02*
X170087D01*
Y301799D01*
X155913Y286248D02*
Y301799D01*
X391398Y279047D02*
X403602D01*
X391398Y284953D02*
X403602D01*
Y279047D02*
Y284953D01*
X391398Y279047D02*
Y284953D01*
X289547Y286898D02*
X295453D01*
X289547Y299102D02*
X295453D01*
X289547Y286898D02*
Y299102D01*
X295453Y286898D02*
Y299102D01*
X406753Y286313D02*
Y300487D01*
X391202Y286313D02*
Y300487D01*
Y286313D02*
X406753D01*
X391202Y300487D02*
X406753D01*
X274173Y286698D02*
Y302250D01*
X288347Y286698D02*
Y302250D01*
X274173Y286698D02*
X288347D01*
X274173Y302250D02*
X288347D01*
M02*
